<?xml version="1.0" encoding="iso-8859-1"?>
<!-- Generator: Adobe Illustrator 16.0.0, SVG Export Plug-In . SVG Version: 6.00 Build 0)  -->
<!DOCTYPE svg PUBLIC "-//W3C//DTD SVG 1.1//EN" "http://www.w3.org/Graphics/SVG/1.1/DTD/svg11.dtd">
<svg fill="#a65e46" version="1.1" id="Capa_1" xmlns="http://www.w3.org/2000/svg" xmlns:xlink="http://www.w3.org/1999/xlink" x="0px" y="0px"
	 width="113.405px" height="113.405px" viewBox="0 0 113.405 113.405" style="enable-background:new 0 0 113.405 113.405;"
	 xml:space="preserve">
<g>
	<path d="M110.7,104.365H2.7c-1.484,0-2.7-1.202-2.7-2.7c0-1.487,1.215-2.7,2.7-2.7h108c1.487,0,2.7,1.213,2.7,2.7
		C113.4,103.168,112.187,104.365,110.7,104.365z M113.4,81.325v10.843c0,1.481-1.213,2.7-2.7,2.7L30.72,94.931
		c-0.011,0-0.011,0-0.011,0c-0.2,0-0.4-0.021-0.577-0.062H2.7c-1.484,0-2.7-1.219-2.7-2.7V81.431h15.691
		c1.487,0,2.7-1.213,2.7-2.699c0-1.498-1.213-2.7-2.7-2.7H0V12.637c0-1.084,0.659-2.078,1.669-2.495
		c1.015-0.406,2.17-0.185,2.943,0.572l24.671,24.619l25.51-25.505c1.052-1.052,2.771-1.052,3.818,0l25.483,25.479l24.706-24.593
		c0.775-0.767,1.92-0.994,2.942-0.572c1.008,0.422,1.661,1.411,1.661,2.495v63.494c-0.152-0.047-0.332-0.11-0.506-0.11h-16.2
		c-1.487,0-2.7,1.202-2.7,2.7c0,1.487,1.213,2.7,2.7,2.7h16.2C113.073,81.415,113.231,81.352,113.4,81.325z M27.387,56.335
		c1.055,1.033,2.766,1.039,3.818-0.011l17.318-17.318c1.055-1.055,1.055-2.771,0-3.817c-1.052-1.055-2.763-1.055-3.818,0
		L29.294,50.6L15.412,36.754c-0.772-0.772-1.928-1-2.942-0.578c-1.01,0.409-1.669,1.403-1.669,2.495v25.099
		c0,1.481,1.215,2.699,2.7,2.699c1.484,0,2.7-1.218,2.7-2.699V45.179L27.387,56.335z M50.791,78.715c0-1.487-1.213-2.7-2.7-2.7
		h-16.2c-1.49,0-2.7,1.213-2.7,2.7c0,1.498,1.21,2.7,2.7,2.7h16.2C49.588,81.415,50.791,80.218,50.791,78.715z M83.194,78.715
		c0-1.487-1.213-2.7-2.7-2.7H64.291c-1.494,0-2.699,1.213-2.699,2.7c0,1.498,1.205,2.7,2.699,2.7h16.203
		C81.992,81.415,83.194,80.218,83.194,78.715z"/>
</g>
<g>
</g>
<g>
</g>
<g>
</g>
<g>
</g>
<g>
</g>
<g>
</g>
<g>
</g>
<g>
</g>
<g>
</g>
<g>
</g>
<g>
</g>
<g>
</g>
<g>
</g>
<g>
</g>
<g>
</g>
</svg>
