<svg xmlns="http://www.w3.org/2000/svg" xmlns:xlink="http://www.w3.org/1999/xlink" width="1080" zoomAndPan="magnify" viewBox="0 0 810 809.999993" height="1080" preserveAspectRatio="xMidYMid meet" version="1.0"><defs><clipPath id="id1"><path d="M 0 153 L 684 153 L 684 756.503906 L 0 756.503906 Z M 0 153 " clip-rule="nonzero"/></clipPath><clipPath id="id2"><path d="M 96 53.753906 L 158 53.753906 L 158 215 L 96 215 Z M 96 53.753906 " clip-rule="nonzero"/></clipPath><clipPath id="id3"><path d="M 526 53.753906 L 588 53.753906 L 588 215 L 526 215 Z M 526 53.753906 " clip-rule="nonzero"/></clipPath><clipPath id="id4"><path d="M 190 105 L 810 105 L 810 756.503906 L 190 756.503906 Z M 190 105 " clip-rule="nonzero"/></clipPath></defs><g clip-path="url(#id1)"><path fill="rgb(66.668701%, 78.039551%, 83.139038%)" d="M 683.542969 719.042969 C 683.542969 739.601562 666.902344 756.25 646.386719 756.25 L 38.070312 756.25 C 17.558594 756.25 0.917969 739.601562 0.917969 719.042969 L 0.917969 190.867188 C 0.917969 170.34375 17.558594 153.699219 38.070312 153.699219 L 646.386719 153.699219 C 666.902344 153.699219 683.542969 170.34375 683.542969 190.867188 L 683.542969 719.042969 " fill-opacity="1" fill-rule="nonzero"/></g><path fill="rgb(90.19928%, 92.549133%, 93.328857%)" d="M 683.542969 679.242188 C 683.542969 699.765625 666.902344 716.410156 646.386719 716.410156 L 38.070312 716.410156 C 17.558594 716.410156 0.917969 699.765625 0.917969 679.242188 L 0.917969 151.027344 C 0.917969 130.503906 17.558594 113.859375 38.070312 113.859375 L 646.386719 113.859375 C 666.902344 113.859375 683.542969 130.503906 683.542969 151.027344 L 683.542969 679.242188 " fill-opacity="1" fill-rule="nonzero"/><path fill="rgb(26.669312%, 70.979309%, 78.42865%)" d="M 683.542969 294.613281 L 683.542969 151.027344 C 683.542969 130.503906 666.902344 113.859375 646.386719 113.859375 L 38.070312 113.859375 C 17.558594 113.859375 0.917969 130.503906 0.917969 151.027344 L 0.917969 294.613281 L 683.542969 294.613281 " fill-opacity="1" fill-rule="nonzero"/><path fill="rgb(65.879822%, 88.238525%, 88.238525%)" d="M 139.660156 391.117188 L 65.863281 391.117188 L 65.863281 339.71875 L 139.660156 339.71875 L 139.660156 391.117188 " fill-opacity="1" fill-rule="nonzero"/><path fill="rgb(65.879822%, 88.238525%, 88.238525%)" d="M 259.382812 391.117188 L 185.625 391.117188 L 185.625 339.71875 L 259.382812 339.71875 L 259.382812 391.117188 " fill-opacity="1" fill-rule="nonzero"/><path fill="rgb(65.879822%, 88.238525%, 88.238525%)" d="M 379.109375 391.117188 L 305.351562 391.117188 L 305.351562 339.71875 L 379.109375 339.71875 L 379.109375 391.117188 " fill-opacity="1" fill-rule="nonzero"/><path fill="rgb(65.879822%, 88.238525%, 88.238525%)" d="M 498.871094 391.117188 L 425.074219 391.117188 L 425.074219 339.71875 L 498.871094 339.71875 L 498.871094 391.117188 " fill-opacity="1" fill-rule="nonzero"/><path fill="rgb(65.879822%, 88.238525%, 88.238525%)" d="M 618.597656 391.117188 L 544.800781 391.117188 L 544.800781 339.71875 L 618.597656 339.71875 L 618.597656 391.117188 " fill-opacity="1" fill-rule="nonzero"/><path fill="rgb(65.879822%, 88.238525%, 88.238525%)" d="M 139.660156 475.734375 L 65.863281 475.734375 L 65.863281 424.335938 L 139.660156 424.335938 L 139.660156 475.734375 " fill-opacity="1" fill-rule="nonzero"/><path fill="rgb(65.879822%, 88.238525%, 88.238525%)" d="M 259.382812 475.734375 L 185.625 475.734375 L 185.625 424.335938 L 259.382812 424.335938 L 259.382812 475.734375 " fill-opacity="1" fill-rule="nonzero"/><path fill="rgb(26.669312%, 70.979309%, 78.42865%)" d="M 379.109375 475.734375 L 305.351562 475.734375 L 305.351562 424.335938 L 379.109375 424.335938 L 379.109375 475.734375 " fill-opacity="1" fill-rule="nonzero"/><path fill="rgb(65.879822%, 88.238525%, 88.238525%)" d="M 498.871094 475.734375 L 425.074219 475.734375 L 425.074219 424.335938 L 498.871094 424.335938 L 498.871094 475.734375 " fill-opacity="1" fill-rule="nonzero"/><path fill="rgb(65.879822%, 88.238525%, 88.238525%)" d="M 618.597656 475.734375 L 544.800781 475.734375 L 544.800781 424.335938 L 618.597656 424.335938 L 618.597656 475.734375 " fill-opacity="1" fill-rule="nonzero"/><path fill="rgb(65.879822%, 88.238525%, 88.238525%)" d="M 139.660156 560.386719 L 65.863281 560.386719 L 65.863281 508.988281 L 139.660156 508.988281 L 139.660156 560.386719 " fill-opacity="1" fill-rule="nonzero"/><path fill="rgb(65.879822%, 88.238525%, 88.238525%)" d="M 259.382812 560.386719 L 185.625 560.386719 L 185.625 508.988281 L 259.382812 508.988281 L 259.382812 560.386719 " fill-opacity="1" fill-rule="nonzero"/><path fill="rgb(65.879822%, 88.238525%, 88.238525%)" d="M 379.109375 560.386719 L 305.351562 560.386719 L 305.351562 508.988281 L 379.109375 508.988281 L 379.109375 560.386719 " fill-opacity="1" fill-rule="nonzero"/><path fill="rgb(65.879822%, 88.238525%, 88.238525%)" d="M 498.871094 560.386719 L 425.074219 560.386719 L 425.074219 508.988281 L 498.871094 508.988281 L 498.871094 560.386719 " fill-opacity="1" fill-rule="nonzero"/><path fill="rgb(65.879822%, 88.238525%, 88.238525%)" d="M 618.597656 560.386719 L 544.800781 560.386719 L 544.800781 508.988281 L 618.597656 508.988281 L 618.597656 560.386719 " fill-opacity="1" fill-rule="nonzero"/><path fill="rgb(65.879822%, 88.238525%, 88.238525%)" d="M 139.660156 645 L 65.863281 645 L 65.863281 593.601562 L 139.660156 593.601562 L 139.660156 645 " fill-opacity="1" fill-rule="nonzero"/><path fill="rgb(65.879822%, 88.238525%, 88.238525%)" d="M 259.382812 645 L 185.625 645 L 185.625 593.601562 L 259.382812 593.601562 L 259.382812 645 " fill-opacity="1" fill-rule="nonzero"/><path fill="rgb(65.879822%, 88.238525%, 88.238525%)" d="M 379.109375 645 L 305.351562 645 L 305.351562 593.601562 L 379.109375 593.601562 L 379.109375 645 " fill-opacity="1" fill-rule="nonzero"/><path fill="rgb(65.879822%, 88.238525%, 88.238525%)" d="M 498.871094 645 L 425.074219 645 L 425.074219 593.601562 L 498.871094 593.601562 L 498.871094 645 " fill-opacity="1" fill-rule="nonzero"/><path fill="rgb(65.879822%, 88.238525%, 88.238525%)" d="M 618.597656 645 L 544.800781 645 L 544.800781 593.601562 L 618.597656 593.601562 L 618.597656 645 " fill-opacity="1" fill-rule="nonzero"/><g clip-path="url(#id2)"><path fill="rgb(66.668701%, 78.039551%, 83.139038%)" d="M 157.46875 184.097656 C 157.46875 200.960938 143.828125 214.609375 126.96875 214.609375 C 110.148438 214.609375 96.507812 200.960938 96.507812 184.097656 L 96.507812 84.117188 C 96.507812 67.289062 110.148438 53.644531 126.96875 53.644531 C 143.828125 53.644531 157.46875 67.289062 157.46875 84.117188 L 157.46875 184.097656 " fill-opacity="1" fill-rule="nonzero"/></g><g clip-path="url(#id3)"><path fill="rgb(66.668701%, 78.039551%, 83.139038%)" d="M 587.953125 184.097656 C 587.953125 200.960938 574.3125 214.609375 557.492188 214.609375 C 540.667969 214.609375 526.992188 200.960938 526.992188 184.097656 L 526.992188 84.117188 C 526.992188 67.289062 540.667969 53.644531 557.492188 53.644531 C 574.3125 53.644531 587.953125 67.289062 587.953125 84.117188 L 587.953125 184.097656 " fill-opacity="1" fill-rule="nonzero"/></g><path fill="rgb(84.309387%, 15.689087%, 18.429565%)" d="M 809.082031 570.007812 C 809.082031 639.367188 752.875 695.59375 683.542969 695.59375 C 614.207031 695.59375 558.003906 639.367188 558.003906 570.007812 C 558.003906 500.644531 614.207031 444.417969 683.542969 444.417969 C 752.875 444.417969 809.082031 500.644531 809.082031 570.007812 " fill-opacity="1" fill-rule="nonzero"/><g clip-path="url(#id4)"><path stroke-linecap="butt" transform="matrix(0.365685, 0, 0, -0.365825, -372.445787, 1182.690657)" fill="none" stroke-linejoin="miter" d="M 2671.103261 1678.299748 L 2817.297319 1535.204966 L 3104.397838 1814.496595 " stroke="rgb(100%, 100%, 100%)" stroke-width="80" stroke-opacity="1" stroke-miterlimit="10"/></g></svg>