<svg width="392" height="288" viewBox="0 0 392 288" fill="none" xmlns="http://www.w3.org/2000/svg">
<g id="Frame 1">
<path id="events, limited items, memberships" d="M39.14 74.28C39.14 74.328 39.104 74.892 39.032 75.972H24.848C25.136 76.98 25.688 77.76 26.504 78.312C27.344 78.84 28.388 79.104 29.636 79.104C30.572 79.104 31.376 78.972 32.048 78.708C32.744 78.444 33.44 78.012 34.136 77.412L37.736 81.156C35.84 83.268 33.068 84.324 29.42 84.324C27.14 84.324 25.136 83.892 23.408 83.028C21.68 82.164 20.336 80.964 19.376 79.428C18.44 77.892 17.972 76.152 17.972 74.208C17.972 72.288 18.428 70.572 19.34 69.06C20.276 67.524 21.56 66.324 23.192 65.46C24.824 64.596 26.66 64.164 28.7 64.164C30.644 64.164 32.408 64.572 33.992 65.388C35.576 66.18 36.824 67.344 37.736 68.88C38.672 70.392 39.14 72.192 39.14 74.28ZM28.736 69.024C27.68 69.024 26.792 69.324 26.072 69.924C25.376 70.524 24.932 71.34 24.74 72.372H32.732C32.54 71.34 32.084 70.524 31.364 69.924C30.668 69.324 29.792 69.024 28.736 69.024ZM62.4981 64.488L54.4341 84H47.3781L39.3501 64.488H46.3701L51.0501 76.404L55.9821 64.488H62.4981ZM83.683 74.28C83.683 74.328 83.647 74.892 83.575 75.972H69.391C69.679 76.98 70.231 77.76 71.047 78.312C71.887 78.84 72.931 79.104 74.179 79.104C75.115 79.104 75.919 78.972 76.591 78.708C77.287 78.444 77.983 78.012 78.679 77.412L82.279 81.156C80.383 83.268 77.611 84.324 73.963 84.324C71.683 84.324 69.679 83.892 67.951 83.028C66.223 82.164 64.879 80.964 63.919 79.428C62.983 77.892 62.515 76.152 62.515 74.208C62.515 72.288 62.971 70.572 63.883 69.06C64.819 67.524 66.103 66.324 67.735 65.46C69.367 64.596 71.203 64.164 73.243 64.164C75.187 64.164 76.951 64.572 78.535 65.388C80.119 66.18 81.367 67.344 82.279 68.88C83.215 70.392 83.683 72.192 83.683 74.28ZM73.279 69.024C72.223 69.024 71.335 69.324 70.615 69.924C69.919 70.524 69.475 71.34 69.283 72.372H77.275C77.083 71.34 76.627 70.524 75.907 69.924C75.211 69.324 74.335 69.024 73.279 69.024ZM99.5446 64.164C101.969 64.164 103.913 64.884 105.377 66.324C106.865 67.764 107.609 69.936 107.609 72.84V84H100.769V73.956C100.769 71.292 99.7006 69.96 97.5646 69.96C96.3886 69.96 95.4406 70.344 94.7206 71.112C94.0246 71.88 93.6766 73.032 93.6766 74.568V84H86.8366V64.488H93.3526V66.612C94.1206 65.82 95.0326 65.22 96.0886 64.812C97.1446 64.38 98.2966 64.164 99.5446 64.164ZM125.367 83.208C124.791 83.568 124.083 83.844 123.243 84.036C122.427 84.228 121.551 84.324 120.615 84.324C118.071 84.324 116.115 83.7 114.747 82.452C113.379 81.204 112.695 79.344 112.695 76.872V70.32H109.851V65.208H112.695V60.132H119.535V65.208H123.999V70.32H119.535V76.8C119.535 77.496 119.715 78.048 120.075 78.456C120.459 78.84 120.963 79.032 121.587 79.032C122.379 79.032 123.075 78.828 123.675 78.42L125.367 83.208ZM135.097 84.324C133.465 84.324 131.857 84.144 130.273 83.784C128.689 83.4 127.417 82.908 126.457 82.308L128.509 77.628C129.397 78.18 130.453 78.624 131.677 78.96C132.901 79.272 134.113 79.428 135.313 79.428C136.417 79.428 137.197 79.32 137.653 79.104C138.133 78.864 138.373 78.528 138.373 78.096C138.373 77.664 138.085 77.364 137.509 77.196C136.957 77.004 136.069 76.824 134.845 76.656C133.285 76.464 131.953 76.212 130.849 75.9C129.769 75.588 128.833 75.012 128.041 74.172C127.249 73.332 126.853 72.156 126.853 70.644C126.853 69.396 127.225 68.292 127.969 67.332C128.713 66.348 129.793 65.58 131.209 65.028C132.649 64.452 134.365 64.164 136.357 64.164C137.773 64.164 139.177 64.308 140.569 64.596C141.961 64.884 143.125 65.292 144.061 65.82L142.009 70.464C140.281 69.504 138.409 69.024 136.393 69.024C135.313 69.024 134.521 69.156 134.017 69.42C133.513 69.66 133.261 69.984 133.261 70.392C133.261 70.848 133.537 71.172 134.089 71.364C134.641 71.532 135.553 71.712 136.825 71.904C138.433 72.144 139.765 72.42 140.821 72.732C141.877 73.044 142.789 73.62 143.557 74.46C144.349 75.276 144.745 76.428 144.745 77.916C144.745 79.14 144.373 80.244 143.629 81.228C142.885 82.188 141.781 82.944 140.317 83.496C138.877 84.048 137.137 84.324 135.097 84.324ZM150.608 76.224C151.784 76.224 152.756 76.596 153.524 77.34C154.292 78.084 154.676 79.056 154.676 80.256C154.676 80.808 154.604 81.36 154.46 81.912C154.316 82.464 153.992 83.292 153.488 84.396L151.22 89.652H146.936L148.628 83.784C147.956 83.472 147.428 83.016 147.044 82.416C146.684 81.792 146.504 81.072 146.504 80.256C146.504 79.056 146.888 78.084 147.656 77.34C148.424 76.596 149.408 76.224 150.608 76.224ZM19.196 101.288H26.036V128H19.196V101.288ZM30.4812 108.488H37.3212V128H30.4812V108.488ZM33.9012 106.328C32.6532 106.328 31.6452 105.98 30.8772 105.284C30.1092 104.588 29.7252 103.724 29.7252 102.692C29.7252 101.66 30.1092 100.796 30.8772 100.1C31.6452 99.404 32.6532 99.056 33.9012 99.056C35.1492 99.056 36.1572 99.392 36.9252 100.064C37.6932 100.712 38.0772 101.552 38.0772 102.584C38.0772 103.664 37.6932 104.564 36.9252 105.284C36.1572 105.98 35.1492 106.328 33.9012 106.328ZM67.1823 108.164C69.5823 108.164 71.4903 108.884 72.9063 110.324C74.3463 111.764 75.0663 113.936 75.0663 116.84V128H68.2263V117.956C68.2263 116.588 67.9623 115.58 67.4343 114.932C66.9303 114.284 66.2103 113.96 65.2743 113.96C64.2423 113.96 63.4143 114.32 62.7903 115.04C62.1663 115.76 61.8543 116.852 61.8543 118.316V128H55.0143V117.956C55.0143 115.292 54.0303 113.96 52.0623 113.96C51.0063 113.96 50.1663 114.32 49.5423 115.04C48.9183 115.76 48.6063 116.852 48.6063 118.316V128H41.7663V108.488H48.2823V110.54C49.0023 109.748 49.8543 109.16 50.8383 108.776C51.8463 108.368 52.9383 108.164 54.1143 108.164C55.4823 108.164 56.7063 108.416 57.7863 108.92C58.8663 109.424 59.7423 110.192 60.4143 111.224C61.1823 110.24 62.1543 109.484 63.3303 108.956C64.5063 108.428 65.7903 108.164 67.1823 108.164ZM79.3835 108.488H86.2235V128H79.3835V108.488ZM82.8035 106.328C81.5555 106.328 80.5475 105.98 79.7795 105.284C79.0115 104.588 78.6275 103.724 78.6275 102.692C78.6275 101.66 79.0115 100.796 79.7795 100.1C80.5475 99.404 81.5555 99.056 82.8035 99.056C84.0515 99.056 85.0595 99.392 85.8275 100.064C86.5955 100.712 86.9795 101.552 86.9795 102.584C86.9795 103.664 86.5955 104.564 85.8275 105.284C85.0595 105.98 84.0515 106.328 82.8035 106.328ZM104.133 127.208C103.557 127.568 102.849 127.844 102.009 128.036C101.193 128.228 100.317 128.324 99.3807 128.324C96.8367 128.324 94.8807 127.7 93.5127 126.452C92.1447 125.204 91.4607 123.344 91.4607 120.872V114.32H88.6167V109.208H91.4607V104.132H98.3007V109.208H102.765V114.32H98.3007V120.8C98.3007 121.496 98.4807 122.048 98.8407 122.456C99.2247 122.84 99.7287 123.032 100.353 123.032C101.145 123.032 101.841 122.828 102.441 122.42L104.133 127.208ZM126.152 118.28C126.152 118.328 126.116 118.892 126.044 119.972H111.86C112.148 120.98 112.7 121.76 113.516 122.312C114.356 122.84 115.4 123.104 116.648 123.104C117.584 123.104 118.388 122.972 119.06 122.708C119.756 122.444 120.452 122.012 121.148 121.412L124.748 125.156C122.852 127.268 120.08 128.324 116.432 128.324C114.152 128.324 112.148 127.892 110.42 127.028C108.692 126.164 107.348 124.964 106.388 123.428C105.452 121.892 104.984 120.152 104.984 118.208C104.984 116.288 105.44 114.572 106.352 113.06C107.288 111.524 108.572 110.324 110.204 109.46C111.836 108.596 113.672 108.164 115.712 108.164C117.656 108.164 119.42 108.572 121.004 109.388C122.588 110.18 123.836 111.344 124.748 112.88C125.684 114.392 126.152 116.192 126.152 118.28ZM115.748 113.024C114.692 113.024 113.804 113.324 113.084 113.924C112.388 114.524 111.944 115.34 111.752 116.372H119.744C119.552 115.34 119.096 114.524 118.376 113.924C117.68 113.324 116.804 113.024 115.748 113.024ZM150.041 101.288V128H143.525V126.056C142.253 127.568 140.345 128.324 137.801 128.324C136.025 128.324 134.405 127.916 132.941 127.1C131.477 126.26 130.313 125.072 129.449 123.536C128.609 122 128.189 120.224 128.189 118.208C128.189 116.192 128.609 114.428 129.449 112.916C130.313 111.38 131.477 110.204 132.941 109.388C134.405 108.572 136.025 108.164 137.801 108.164C140.129 108.164 141.929 108.836 143.201 110.18V101.288H150.041ZM139.241 122.888C140.417 122.888 141.389 122.48 142.157 121.664C142.925 120.824 143.309 119.672 143.309 118.208C143.309 116.768 142.925 115.64 142.157 114.824C141.413 114.008 140.441 113.6 139.241 113.6C138.041 113.6 137.057 114.008 136.289 114.824C135.521 115.64 135.137 116.768 135.137 118.208C135.137 119.672 135.521 120.824 136.289 121.664C137.057 122.48 138.041 122.888 139.241 122.888ZM164.919 108.488H171.759V128H164.919V108.488ZM168.339 106.328C167.091 106.328 166.083 105.98 165.315 105.284C164.547 104.588 164.163 103.724 164.163 102.692C164.163 101.66 164.547 100.796 165.315 100.1C166.083 99.404 167.091 99.056 168.339 99.056C169.587 99.056 170.595 99.392 171.363 100.064C172.131 100.712 172.515 101.552 172.515 102.584C172.515 103.664 172.131 104.564 171.363 105.284C170.595 105.98 169.587 106.328 168.339 106.328ZM189.668 127.208C189.092 127.568 188.384 127.844 187.544 128.036C186.728 128.228 185.852 128.324 184.916 128.324C182.372 128.324 180.416 127.7 179.048 126.452C177.68 125.204 176.996 123.344 176.996 120.872V114.32H174.152V109.208H176.996V104.132H183.836V109.208H188.3V114.32H183.836V120.8C183.836 121.496 184.016 122.048 184.376 122.456C184.76 122.84 185.264 123.032 185.888 123.032C186.68 123.032 187.376 122.828 187.976 122.42L189.668 127.208ZM211.687 118.28C211.687 118.328 211.651 118.892 211.579 119.972H197.395C197.683 120.98 198.235 121.76 199.051 122.312C199.891 122.84 200.935 123.104 202.183 123.104C203.119 123.104 203.923 122.972 204.595 122.708C205.291 122.444 205.987 122.012 206.683 121.412L210.283 125.156C208.387 127.268 205.615 128.324 201.967 128.324C199.687 128.324 197.683 127.892 195.955 127.028C194.227 126.164 192.883 124.964 191.923 123.428C190.987 121.892 190.519 120.152 190.519 118.208C190.519 116.288 190.975 114.572 191.887 113.06C192.823 111.524 194.107 110.324 195.739 109.46C197.371 108.596 199.207 108.164 201.247 108.164C203.191 108.164 204.955 108.572 206.539 109.388C208.123 110.18 209.371 111.344 210.283 112.88C211.219 114.392 211.687 116.192 211.687 118.28ZM201.283 113.024C200.227 113.024 199.339 113.324 198.619 113.924C197.923 114.524 197.479 115.34 197.287 116.372H205.279C205.087 115.34 204.631 114.524 203.911 113.924C203.215 113.324 202.339 113.024 201.283 113.024ZM240.257 108.164C242.657 108.164 244.565 108.884 245.981 110.324C247.421 111.764 248.141 113.936 248.141 116.84V128H241.301V117.956C241.301 116.588 241.037 115.58 240.509 114.932C240.005 114.284 239.285 113.96 238.349 113.96C237.317 113.96 236.489 114.32 235.865 115.04C235.241 115.76 234.929 116.852 234.929 118.316V128H228.089V117.956C228.089 115.292 227.105 113.96 225.137 113.96C224.081 113.96 223.241 114.32 222.617 115.04C221.993 115.76 221.681 116.852 221.681 118.316V128H214.841V108.488H221.357V110.54C222.077 109.748 222.929 109.16 223.913 108.776C224.921 108.368 226.013 108.164 227.189 108.164C228.557 108.164 229.781 108.416 230.861 108.92C231.941 109.424 232.817 110.192 233.489 111.224C234.257 110.24 235.229 109.484 236.405 108.956C237.581 108.428 238.865 108.164 240.257 108.164ZM259.55 128.324C257.918 128.324 256.31 128.144 254.726 127.784C253.142 127.4 251.87 126.908 250.91 126.308L252.962 121.628C253.85 122.18 254.906 122.624 256.13 122.96C257.354 123.272 258.566 123.428 259.766 123.428C260.87 123.428 261.65 123.32 262.106 123.104C262.586 122.864 262.826 122.528 262.826 122.096C262.826 121.664 262.538 121.364 261.962 121.196C261.41 121.004 260.522 120.824 259.298 120.656C257.738 120.464 256.406 120.212 255.302 119.9C254.222 119.588 253.286 119.012 252.494 118.172C251.702 117.332 251.306 116.156 251.306 114.644C251.306 113.396 251.678 112.292 252.422 111.332C253.166 110.348 254.246 109.58 255.662 109.028C257.102 108.452 258.818 108.164 260.81 108.164C262.226 108.164 263.63 108.308 265.022 108.596C266.414 108.884 267.578 109.292 268.514 109.82L266.462 114.464C264.734 113.504 262.862 113.024 260.846 113.024C259.766 113.024 258.974 113.156 258.47 113.42C257.966 113.66 257.714 113.984 257.714 114.392C257.714 114.848 257.99 115.172 258.542 115.364C259.094 115.532 260.006 115.712 261.278 115.904C262.886 116.144 264.218 116.42 265.274 116.732C266.33 117.044 267.242 117.62 268.01 118.46C268.802 119.276 269.198 120.428 269.198 121.916C269.198 123.14 268.826 124.244 268.082 125.228C267.338 126.188 266.234 126.944 264.77 127.496C263.33 128.048 261.59 128.324 259.55 128.324ZM275.061 120.224C276.237 120.224 277.209 120.596 277.977 121.34C278.745 122.084 279.129 123.056 279.129 124.256C279.129 124.808 279.057 125.36 278.913 125.912C278.769 126.464 278.445 127.292 277.941 128.396L275.673 133.652H271.389L273.081 127.784C272.409 127.472 271.881 127.016 271.497 126.416C271.137 125.792 270.957 125.072 270.957 124.256C270.957 123.056 271.341 122.084 272.109 121.34C272.877 120.596 273.861 120.224 275.061 120.224ZM44.612 152.164C47.012 152.164 48.92 152.884 50.336 154.324C51.776 155.764 52.496 157.936 52.496 160.84V172H45.656V161.956C45.656 160.588 45.392 159.58 44.864 158.932C44.36 158.284 43.64 157.96 42.704 157.96C41.672 157.96 40.844 158.32 40.22 159.04C39.596 159.76 39.284 160.852 39.284 162.316V172H32.444V161.956C32.444 159.292 31.46 157.96 29.492 157.96C28.436 157.96 27.596 158.32 26.972 159.04C26.348 159.76 26.036 160.852 26.036 162.316V172H19.196V152.488H25.712V154.54C26.432 153.748 27.284 153.16 28.268 152.776C29.276 152.368 30.368 152.164 31.544 152.164C32.912 152.164 34.136 152.416 35.216 152.92C36.296 153.424 37.172 154.192 37.844 155.224C38.612 154.24 39.584 153.484 40.76 152.956C41.936 152.428 43.22 152.164 44.612 152.164ZM77.0384 162.28C77.0384 162.328 77.0024 162.892 76.9304 163.972H62.7464C63.0344 164.98 63.5864 165.76 64.4024 166.312C65.2424 166.84 66.2864 167.104 67.5344 167.104C68.4704 167.104 69.2744 166.972 69.9464 166.708C70.6424 166.444 71.3384 166.012 72.0344 165.412L75.6344 169.156C73.7384 171.268 70.9664 172.324 67.3184 172.324C65.0384 172.324 63.0344 171.892 61.3064 171.028C59.5784 170.164 58.2344 168.964 57.2744 167.428C56.3384 165.892 55.8704 164.152 55.8704 162.208C55.8704 160.288 56.3264 158.572 57.2384 157.06C58.1744 155.524 59.4584 154.324 61.0904 153.46C62.7224 152.596 64.5584 152.164 66.5984 152.164C68.5424 152.164 70.3064 152.572 71.8904 153.388C73.4744 154.18 74.7224 155.344 75.6344 156.88C76.5704 158.392 77.0384 160.192 77.0384 162.28ZM66.6344 157.024C65.5784 157.024 64.6904 157.324 63.9704 157.924C63.2744 158.524 62.8304 159.34 62.6384 160.372H70.6304C70.4384 159.34 69.9824 158.524 69.2624 157.924C68.5664 157.324 67.6904 157.024 66.6344 157.024ZM105.608 152.164C108.008 152.164 109.916 152.884 111.332 154.324C112.772 155.764 113.492 157.936 113.492 160.84V172H106.652V161.956C106.652 160.588 106.388 159.58 105.86 158.932C105.356 158.284 104.636 157.96 103.7 157.96C102.668 157.96 101.84 158.32 101.216 159.04C100.592 159.76 100.28 160.852 100.28 162.316V172H93.4401V161.956C93.4401 159.292 92.4561 157.96 90.4881 157.96C89.4321 157.96 88.5921 158.32 87.9681 159.04C87.3441 159.76 87.0321 160.852 87.0321 162.316V172H80.1921V152.488H86.7081V154.54C87.4281 153.748 88.2801 153.16 89.2641 152.776C90.2721 152.368 91.3641 152.164 92.5401 152.164C93.9081 152.164 95.1321 152.416 96.2121 152.92C97.2921 153.424 98.1681 154.192 98.8401 155.224C99.6081 154.24 100.58 153.484 101.756 152.956C102.932 152.428 104.216 152.164 105.608 152.164ZM130.085 152.164C131.861 152.164 133.469 152.572 134.909 153.388C136.373 154.204 137.525 155.38 138.365 156.916C139.229 158.428 139.661 160.192 139.661 162.208C139.661 164.224 139.229 166 138.365 167.536C137.525 169.072 136.373 170.26 134.909 171.1C133.469 171.916 131.861 172.324 130.085 172.324C127.517 172.324 125.597 171.568 124.325 170.056V172H117.809V145.288H124.649V154.18C125.969 152.836 127.781 152.164 130.085 152.164ZM128.645 166.888C129.845 166.888 130.829 166.48 131.597 165.664C132.365 164.824 132.749 163.672 132.749 162.208C132.749 160.768 132.365 159.64 131.597 158.824C130.829 158.008 129.845 157.6 128.645 157.6C127.445 157.6 126.461 158.008 125.693 158.824C124.925 159.64 124.541 160.768 124.541 162.208C124.541 163.672 124.925 164.824 125.693 165.664C126.461 166.48 127.445 166.888 128.645 166.888ZM162.785 162.28C162.785 162.328 162.749 162.892 162.677 163.972H148.493C148.781 164.98 149.333 165.76 150.149 166.312C150.989 166.84 152.033 167.104 153.281 167.104C154.217 167.104 155.021 166.972 155.693 166.708C156.389 166.444 157.085 166.012 157.781 165.412L161.381 169.156C159.485 171.268 156.713 172.324 153.065 172.324C150.785 172.324 148.781 171.892 147.053 171.028C145.325 170.164 143.981 168.964 143.021 167.428C142.085 165.892 141.617 164.152 141.617 162.208C141.617 160.288 142.073 158.572 142.985 157.06C143.921 155.524 145.205 154.324 146.837 153.46C148.469 152.596 150.305 152.164 152.345 152.164C154.289 152.164 156.053 152.572 157.637 153.388C159.221 154.18 160.469 155.344 161.381 156.88C162.317 158.392 162.785 160.192 162.785 162.28ZM152.381 157.024C151.325 157.024 150.437 157.324 149.717 157.924C149.021 158.524 148.577 159.34 148.385 160.372H156.377C156.185 159.34 155.729 158.524 155.009 157.924C154.313 157.324 153.437 157.024 152.381 157.024ZM172.454 154.828C173.15 153.94 174.05 153.28 175.154 152.848C176.282 152.392 177.566 152.164 179.006 152.164V158.32C178.382 158.248 177.866 158.212 177.458 158.212C175.994 158.212 174.842 158.608 174.002 159.4C173.186 160.192 172.778 161.404 172.778 163.036V172H165.938V152.488H172.454V154.828ZM188.956 172.324C187.324 172.324 185.716 172.144 184.132 171.784C182.548 171.4 181.276 170.908 180.316 170.308L182.368 165.628C183.256 166.18 184.312 166.624 185.536 166.96C186.76 167.272 187.972 167.428 189.172 167.428C190.276 167.428 191.056 167.32 191.512 167.104C191.992 166.864 192.232 166.528 192.232 166.096C192.232 165.664 191.944 165.364 191.368 165.196C190.816 165.004 189.928 164.824 188.704 164.656C187.144 164.464 185.812 164.212 184.708 163.9C183.628 163.588 182.692 163.012 181.9 162.172C181.108 161.332 180.712 160.156 180.712 158.644C180.712 157.396 181.084 156.292 181.828 155.332C182.572 154.348 183.652 153.58 185.068 153.028C186.508 152.452 188.224 152.164 190.216 152.164C191.632 152.164 193.036 152.308 194.428 152.596C195.82 152.884 196.984 153.292 197.92 153.82L195.868 158.464C194.14 157.504 192.268 157.024 190.252 157.024C189.172 157.024 188.38 157.156 187.876 157.42C187.372 157.66 187.12 157.984 187.12 158.392C187.12 158.848 187.396 159.172 187.948 159.364C188.5 159.532 189.412 159.712 190.684 159.904C192.292 160.144 193.624 160.42 194.68 160.732C195.736 161.044 196.648 161.62 197.416 162.46C198.208 163.276 198.604 164.428 198.604 165.916C198.604 167.14 198.232 168.244 197.488 169.228C196.744 170.188 195.64 170.944 194.176 171.496C192.736 172.048 190.996 172.324 188.956 172.324ZM214.259 152.164C216.683 152.164 218.627 152.884 220.091 154.324C221.579 155.764 222.323 157.936 222.323 160.84V172H215.483V161.956C215.483 159.292 214.415 157.96 212.279 157.96C211.103 157.96 210.155 158.344 209.435 159.112C208.739 159.88 208.391 161.032 208.391 162.568V172H201.551V145.288H208.391V154.288C209.135 153.592 210.011 153.064 211.019 152.704C212.027 152.344 213.107 152.164 214.259 152.164ZM226.618 152.488H233.458V172H226.618V152.488ZM230.038 150.328C228.79 150.328 227.782 149.98 227.014 149.284C226.246 148.588 225.862 147.724 225.862 146.692C225.862 145.66 226.246 144.796 227.014 144.1C227.782 143.404 228.79 143.056 230.038 143.056C231.286 143.056 232.294 143.392 233.062 144.064C233.83 144.712 234.214 145.552 234.214 146.584C234.214 147.664 233.83 148.564 233.062 149.284C232.294 149.98 231.286 150.328 230.038 150.328ZM250.179 152.164C251.955 152.164 253.563 152.584 255.003 153.424C256.467 154.24 257.619 155.416 258.459 156.952C259.323 158.464 259.755 160.228 259.755 162.244C259.755 164.26 259.323 166.036 258.459 167.572C257.619 169.084 256.467 170.26 255.003 171.1C253.563 171.916 251.955 172.324 250.179 172.324C247.899 172.324 246.087 171.64 244.743 170.272V178.984H237.903V152.488H244.419V154.432C245.691 152.92 247.611 152.164 250.179 152.164ZM248.739 166.888C249.939 166.888 250.923 166.48 251.691 165.664C252.459 164.824 252.843 163.684 252.843 162.244C252.843 160.804 252.459 159.676 251.691 158.86C250.923 158.02 249.939 157.6 248.739 157.6C247.539 157.6 246.555 158.02 245.787 158.86C245.019 159.676 244.635 160.804 244.635 162.244C244.635 163.684 245.019 164.824 245.787 165.664C246.555 166.48 247.539 166.888 248.739 166.888ZM270.026 172.324C268.394 172.324 266.786 172.144 265.202 171.784C263.618 171.4 262.346 170.908 261.386 170.308L263.438 165.628C264.326 166.18 265.382 166.624 266.606 166.96C267.83 167.272 269.042 167.428 270.242 167.428C271.346 167.428 272.126 167.32 272.582 167.104C273.062 166.864 273.302 166.528 273.302 166.096C273.302 165.664 273.014 165.364 272.438 165.196C271.886 165.004 270.998 164.824 269.774 164.656C268.214 164.464 266.882 164.212 265.778 163.9C264.698 163.588 263.762 163.012 262.97 162.172C262.178 161.332 261.782 160.156 261.782 158.644C261.782 157.396 262.154 156.292 262.898 155.332C263.642 154.348 264.722 153.58 266.138 153.028C267.578 152.452 269.294 152.164 271.286 152.164C272.702 152.164 274.106 152.308 275.498 152.596C276.89 152.884 278.054 153.292 278.99 153.82L276.938 158.464C275.21 157.504 273.338 157.024 271.322 157.024C270.242 157.024 269.45 157.156 268.946 157.42C268.442 157.66 268.19 157.984 268.19 158.392C268.19 158.848 268.466 159.172 269.018 159.364C269.57 159.532 270.482 159.712 271.754 159.904C273.362 160.144 274.694 160.42 275.75 160.732C276.806 161.044 277.718 161.62 278.486 162.46C279.278 163.276 279.674 164.428 279.674 165.916C279.674 167.14 279.302 168.244 278.558 169.228C277.814 170.188 276.71 170.944 275.246 171.496C273.806 172.048 272.066 172.324 270.026 172.324Z" fill="#F1D2B6"/>
<path id="Leverage the best NFT technology to create unique experience for fans." d="M18.596 197.2H19.632V206.104H25.12V207H18.596V197.2ZM32.9328 203.626H26.7728C26.8288 204.391 27.1228 205.012 27.6548 205.488C28.1868 205.955 28.8588 206.188 29.6708 206.188C30.1281 206.188 30.5481 206.109 30.9308 205.95C31.3134 205.782 31.6448 205.539 31.9248 205.222L32.4848 205.866C32.1581 206.258 31.7474 206.557 31.2528 206.762C30.7674 206.967 30.2308 207.07 29.6428 207.07C28.8868 207.07 28.2148 206.911 27.6268 206.594C27.0481 206.267 26.5954 205.819 26.2688 205.25C25.9421 204.681 25.7788 204.037 25.7788 203.318C25.7788 202.599 25.9328 201.955 26.2408 201.386C26.5581 200.817 26.9874 200.373 27.5288 200.056C28.0794 199.739 28.6954 199.58 29.3768 199.58C30.0581 199.58 30.6694 199.739 31.2108 200.056C31.7521 200.373 32.1768 200.817 32.4848 201.386C32.7928 201.946 32.9468 202.59 32.9468 203.318L32.9328 203.626ZM29.3768 200.434C28.6674 200.434 28.0701 200.663 27.5848 201.12C27.1088 201.568 26.8381 202.156 26.7728 202.884H31.9948C31.9294 202.156 31.6541 201.568 31.1688 201.12C30.6928 200.663 30.0954 200.434 29.3768 200.434ZM41.0213 199.636L37.7453 207H36.7233L33.4613 199.636H34.4973L37.2553 205.908L40.0413 199.636H41.0213ZM48.6281 203.626H42.4681C42.5241 204.391 42.8181 205.012 43.3501 205.488C43.8821 205.955 44.5541 206.188 45.3661 206.188C45.8234 206.188 46.2434 206.109 46.6261 205.95C47.0087 205.782 47.3401 205.539 47.6201 205.222L48.1801 205.866C47.8534 206.258 47.4427 206.557 46.9481 206.762C46.4627 206.967 45.9261 207.07 45.3381 207.07C44.5821 207.07 43.9101 206.911 43.3221 206.594C42.7434 206.267 42.2907 205.819 41.9641 205.25C41.6374 204.681 41.4741 204.037 41.4741 203.318C41.4741 202.599 41.6281 201.955 41.9361 201.386C42.2534 200.817 42.6827 200.373 43.2241 200.056C43.7747 199.739 44.3907 199.58 45.0721 199.58C45.7534 199.58 46.3647 199.739 46.9061 200.056C47.4474 200.373 47.8721 200.817 48.1801 201.386C48.4881 201.946 48.6421 202.59 48.6421 203.318L48.6281 203.626ZM45.0721 200.434C44.3627 200.434 43.7654 200.663 43.2801 201.12C42.8041 201.568 42.5334 202.156 42.4681 202.884H47.6901C47.6247 202.156 47.3494 201.568 46.8641 201.12C46.3881 200.663 45.7907 200.434 45.0721 200.434ZM51.6173 201.078C51.8506 200.583 52.196 200.21 52.6533 199.958C53.12 199.706 53.694 199.58 54.3753 199.58V200.546L54.1373 200.532C53.3626 200.532 52.756 200.77 52.3173 201.246C51.8786 201.722 51.6593 202.389 51.6593 203.248V207H50.6653V199.636H51.6173V201.078ZM58.7374 199.58C59.6987 199.58 60.4361 199.823 60.9494 200.308C61.4627 200.784 61.7194 201.493 61.7194 202.436V207H60.7674V205.852C60.5434 206.235 60.2121 206.533 59.7734 206.748C59.3441 206.963 58.8307 207.07 58.2334 207.07C57.4121 207.07 56.7587 206.874 56.2734 206.482C55.7881 206.09 55.5454 205.572 55.5454 204.928C55.5454 204.303 55.7694 203.799 56.2174 203.416C56.6747 203.033 57.3981 202.842 58.3874 202.842H60.7254V202.394C60.7254 201.759 60.5481 201.279 60.1934 200.952C59.8387 200.616 59.3207 200.448 58.6394 200.448C58.1727 200.448 57.7247 200.527 57.2954 200.686C56.8661 200.835 56.4974 201.045 56.1894 201.316L55.7414 200.574C56.1147 200.257 56.5627 200.014 57.0854 199.846C57.6081 199.669 58.1587 199.58 58.7374 199.58ZM58.3874 206.286C58.9474 206.286 59.4281 206.16 59.8294 205.908C60.2307 205.647 60.5294 205.273 60.7254 204.788V203.584H58.4154C57.1554 203.584 56.5254 204.023 56.5254 204.9C56.5254 205.329 56.6887 205.67 57.0154 205.922C57.3421 206.165 57.7994 206.286 58.3874 206.286ZM71.2645 199.636V206.104C71.2645 207.355 70.9565 208.279 70.3405 208.876C69.7339 209.483 68.8145 209.786 67.5825 209.786C66.9012 209.786 66.2525 209.683 65.6365 209.478C65.0299 209.282 64.5352 209.007 64.1525 208.652L64.6565 207.896C65.0112 208.213 65.4405 208.461 65.9445 208.638C66.4579 208.815 66.9945 208.904 67.5545 208.904C68.4879 208.904 69.1739 208.685 69.6125 208.246C70.0512 207.817 70.2705 207.145 70.2705 206.23V205.292C69.9625 205.759 69.5565 206.113 69.0525 206.356C68.5579 206.599 68.0072 206.72 67.4005 206.72C66.7099 206.72 66.0799 206.571 65.5105 206.272C64.9505 205.964 64.5072 205.539 64.1805 204.998C63.8632 204.447 63.7045 203.827 63.7045 203.136C63.7045 202.445 63.8632 201.829 64.1805 201.288C64.5072 200.747 64.9505 200.327 65.5105 200.028C66.0705 199.729 66.7005 199.58 67.4005 199.58C68.0259 199.58 68.5905 199.706 69.0945 199.958C69.5985 200.21 70.0045 200.574 70.3125 201.05V199.636H71.2645ZM67.4985 205.838C68.0305 205.838 68.5112 205.726 68.9405 205.502C69.3699 205.269 69.7012 204.947 69.9345 204.536C70.1772 204.125 70.2985 203.659 70.2985 203.136C70.2985 202.613 70.1772 202.151 69.9345 201.75C69.7012 201.339 69.3699 201.022 68.9405 200.798C68.5205 200.565 68.0399 200.448 67.4985 200.448C66.9665 200.448 66.4859 200.56 66.0565 200.784C65.6365 201.008 65.3052 201.325 65.0625 201.736C64.8292 202.147 64.7125 202.613 64.7125 203.136C64.7125 203.659 64.8292 204.125 65.0625 204.536C65.3052 204.947 65.6365 205.269 66.0565 205.502C66.4859 205.726 66.9665 205.838 67.4985 205.838ZM80.4562 203.626H74.2962C74.3522 204.391 74.6462 205.012 75.1782 205.488C75.7102 205.955 76.3822 206.188 77.1942 206.188C77.6515 206.188 78.0715 206.109 78.4542 205.95C78.8369 205.782 79.1682 205.539 79.4482 205.222L80.0082 205.866C79.6815 206.258 79.2709 206.557 78.7762 206.762C78.2909 206.967 77.7542 207.07 77.1662 207.07C76.4102 207.07 75.7382 206.911 75.1502 206.594C74.5715 206.267 74.1189 205.819 73.7922 205.25C73.4655 204.681 73.3022 204.037 73.3022 203.318C73.3022 202.599 73.4562 201.955 73.7642 201.386C74.0815 200.817 74.5109 200.373 75.0522 200.056C75.6029 199.739 76.2189 199.58 76.9002 199.58C77.5815 199.58 78.1929 199.739 78.7342 200.056C79.2755 200.373 79.7002 200.817 80.0082 201.386C80.3162 201.946 80.4702 202.59 80.4702 203.318L80.4562 203.626ZM76.9002 200.434C76.1909 200.434 75.5935 200.663 75.1082 201.12C74.6322 201.568 74.3615 202.156 74.2962 202.884H79.5182C79.4529 202.156 79.1775 201.568 78.6922 201.12C78.2162 200.663 77.6189 200.434 76.9002 200.434ZM90.0355 206.552C89.8488 206.72 89.6155 206.851 89.3355 206.944C89.0648 207.028 88.7802 207.07 88.4815 207.07C87.7908 207.07 87.2588 206.883 86.8855 206.51C86.5122 206.137 86.3255 205.609 86.3255 204.928V200.476H85.0095V199.636H86.3255V198.026H87.3195V199.636H89.5595V200.476H87.3195V204.872C87.3195 205.311 87.4268 205.647 87.6415 205.88C87.8655 206.104 88.1828 206.216 88.5935 206.216C88.7988 206.216 88.9948 206.183 89.1815 206.118C89.3775 206.053 89.5455 205.959 89.6855 205.838L90.0355 206.552ZM95.597 199.58C96.521 199.58 97.2537 199.851 97.795 200.392C98.3457 200.924 98.621 201.703 98.621 202.73V207H97.627V202.828C97.627 202.063 97.4357 201.479 97.053 201.078C96.6703 200.677 96.1243 200.476 95.415 200.476C94.6217 200.476 93.9917 200.714 93.525 201.19C93.0677 201.657 92.839 202.305 92.839 203.136V207H91.845V196.612H92.839V200.924C93.1097 200.495 93.483 200.163 93.959 199.93C94.435 199.697 94.981 199.58 95.597 199.58ZM107.759 203.626H101.599C101.655 204.391 101.949 205.012 102.481 205.488C103.013 205.955 103.685 206.188 104.497 206.188C104.954 206.188 105.374 206.109 105.757 205.95C106.14 205.782 106.471 205.539 106.751 205.222L107.311 205.866C106.984 206.258 106.574 206.557 106.079 206.762C105.594 206.967 105.057 207.07 104.469 207.07C103.713 207.07 103.041 206.911 102.453 206.594C101.874 206.267 101.422 205.819 101.095 205.25C100.768 204.681 100.605 204.037 100.605 203.318C100.605 202.599 100.759 201.955 101.067 201.386C101.384 200.817 101.814 200.373 102.355 200.056C102.906 199.739 103.522 199.58 104.203 199.58C104.884 199.58 105.496 199.739 106.037 200.056C106.578 200.373 107.003 200.817 107.311 201.386C107.619 201.946 107.773 202.59 107.773 203.318L107.759 203.626ZM104.203 200.434C103.494 200.434 102.896 200.663 102.411 201.12C101.935 201.568 101.664 202.156 101.599 202.884H106.821C106.756 202.156 106.48 201.568 105.995 201.12C105.519 200.663 104.922 200.434 104.203 200.434ZM117.254 199.58C117.945 199.58 118.57 199.739 119.13 200.056C119.69 200.364 120.129 200.803 120.446 201.372C120.764 201.941 120.922 202.59 120.922 203.318C120.922 204.046 120.764 204.695 120.446 205.264C120.129 205.833 119.69 206.277 119.13 206.594C118.57 206.911 117.945 207.07 117.254 207.07C116.638 207.07 116.083 206.939 115.588 206.678C115.103 206.417 114.711 206.039 114.412 205.544V207H113.46V196.612H114.454V201.036C114.762 200.56 115.154 200.201 115.63 199.958C116.116 199.706 116.657 199.58 117.254 199.58ZM117.184 206.188C117.698 206.188 118.164 206.071 118.584 205.838C119.004 205.595 119.331 205.255 119.564 204.816C119.807 204.377 119.928 203.878 119.928 203.318C119.928 202.758 119.807 202.259 119.564 201.82C119.331 201.381 119.004 201.045 118.584 200.812C118.164 200.569 117.698 200.448 117.184 200.448C116.662 200.448 116.19 200.569 115.77 200.812C115.36 201.045 115.033 201.381 114.79 201.82C114.557 202.259 114.44 202.758 114.44 203.318C114.44 203.878 114.557 204.377 114.79 204.816C115.033 205.255 115.36 205.595 115.77 205.838C116.19 206.071 116.662 206.188 117.184 206.188ZM129.361 203.626H123.201C123.257 204.391 123.551 205.012 124.083 205.488C124.615 205.955 125.287 206.188 126.099 206.188C126.556 206.188 126.976 206.109 127.359 205.95C127.741 205.782 128.073 205.539 128.353 205.222L128.913 205.866C128.586 206.258 128.175 206.557 127.681 206.762C127.195 206.967 126.659 207.07 126.071 207.07C125.315 207.07 124.643 206.911 124.055 206.594C123.476 206.267 123.023 205.819 122.697 205.25C122.37 204.681 122.207 204.037 122.207 203.318C122.207 202.599 122.361 201.955 122.669 201.386C122.986 200.817 123.415 200.373 123.957 200.056C124.507 199.739 125.123 199.58 125.805 199.58C126.486 199.58 127.097 199.739 127.639 200.056C128.18 200.373 128.605 200.817 128.913 201.386C129.221 201.946 129.375 202.59 129.375 203.318L129.361 203.626ZM125.805 200.434C125.095 200.434 124.498 200.663 124.013 201.12C123.537 201.568 123.266 202.156 123.201 202.884H128.423C128.357 202.156 128.082 201.568 127.597 201.12C127.121 200.663 126.523 200.434 125.805 200.434ZM133.372 207.07C132.774 207.07 132.2 206.986 131.65 206.818C131.108 206.641 130.684 206.421 130.376 206.16L130.824 205.376C131.132 205.619 131.519 205.819 131.986 205.978C132.452 206.127 132.938 206.202 133.442 206.202C134.114 206.202 134.608 206.099 134.926 205.894C135.252 205.679 135.416 205.381 135.416 204.998C135.416 204.727 135.327 204.517 135.15 204.368C134.972 204.209 134.748 204.093 134.478 204.018C134.207 203.934 133.848 203.855 133.4 203.78C132.802 203.668 132.322 203.556 131.958 203.444C131.594 203.323 131.281 203.122 131.02 202.842C130.768 202.562 130.642 202.175 130.642 201.68C130.642 201.064 130.898 200.56 131.412 200.168C131.925 199.776 132.639 199.58 133.554 199.58C134.03 199.58 134.506 199.645 134.982 199.776C135.458 199.897 135.85 200.061 136.158 200.266L135.724 201.064C135.117 200.644 134.394 200.434 133.554 200.434C132.919 200.434 132.438 200.546 132.112 200.77C131.794 200.994 131.636 201.288 131.636 201.652C131.636 201.932 131.724 202.156 131.902 202.324C132.088 202.492 132.317 202.618 132.588 202.702C132.858 202.777 133.232 202.856 133.708 202.94C134.296 203.052 134.767 203.164 135.122 203.276C135.476 203.388 135.78 203.579 136.032 203.85C136.284 204.121 136.41 204.494 136.41 204.97C136.41 205.614 136.139 206.127 135.598 206.51C135.066 206.883 134.324 207.07 133.372 207.07ZM142.125 206.552C141.939 206.72 141.705 206.851 141.425 206.944C141.155 207.028 140.87 207.07 140.571 207.07C139.881 207.07 139.349 206.883 138.975 206.51C138.602 206.137 138.415 205.609 138.415 204.928V200.476H137.099V199.636H138.415V198.026H139.409V199.636H141.649V200.476H139.409V204.872C139.409 205.311 139.517 205.647 139.731 205.88C139.955 206.104 140.273 206.216 140.683 206.216C140.889 206.216 141.085 206.183 141.271 206.118C141.467 206.053 141.635 205.959 141.775 205.838L142.125 206.552ZM155.999 197.2V207H155.145L148.845 199.048V207H147.809V197.2H148.663L154.977 205.152V197.2H155.999ZM160.234 198.096V201.946H165.302V202.842H160.234V207H159.198V197.2H165.918V198.096H160.234ZM170.029 198.096H166.585V197.2H174.509V198.096H171.065V207H170.029V198.096ZM183.496 206.552C183.31 206.72 183.076 206.851 182.796 206.944C182.526 207.028 182.241 207.07 181.942 207.07C181.252 207.07 180.72 206.883 180.346 206.51C179.973 206.137 179.786 205.609 179.786 204.928V200.476H178.47V199.636H179.786V198.026H180.78V199.636H183.02V200.476H180.78V204.872C180.78 205.311 180.888 205.647 181.102 205.88C181.326 206.104 181.644 206.216 182.054 206.216C182.26 206.216 182.456 206.183 182.642 206.118C182.838 206.053 183.006 205.959 183.146 205.838L183.496 206.552ZM191.458 203.626H185.298C185.354 204.391 185.648 205.012 186.18 205.488C186.712 205.955 187.384 206.188 188.196 206.188C188.653 206.188 189.073 206.109 189.456 205.95C189.839 205.782 190.17 205.539 190.45 205.222L191.01 205.866C190.683 206.258 190.273 206.557 189.778 206.762C189.293 206.967 188.756 207.07 188.168 207.07C187.412 207.07 186.74 206.911 186.152 206.594C185.573 206.267 185.121 205.819 184.794 205.25C184.467 204.681 184.304 204.037 184.304 203.318C184.304 202.599 184.458 201.955 184.766 201.386C185.083 200.817 185.513 200.373 186.054 200.056C186.605 199.739 187.221 199.58 187.902 199.58C188.583 199.58 189.195 199.739 189.736 200.056C190.277 200.373 190.702 200.817 191.01 201.386C191.318 201.946 191.472 202.59 191.472 203.318L191.458 203.626ZM187.902 200.434C187.193 200.434 186.595 200.663 186.11 201.12C185.634 201.568 185.363 202.156 185.298 202.884H190.52C190.455 202.156 190.179 201.568 189.694 201.12C189.218 200.663 188.621 200.434 187.902 200.434ZM196.547 207.07C195.819 207.07 195.166 206.911 194.587 206.594C194.018 206.277 193.57 205.833 193.243 205.264C192.917 204.685 192.753 204.037 192.753 203.318C192.753 202.599 192.917 201.955 193.243 201.386C193.57 200.817 194.018 200.373 194.587 200.056C195.166 199.739 195.819 199.58 196.547 199.58C197.182 199.58 197.747 199.706 198.241 199.958C198.745 200.201 199.142 200.56 199.431 201.036L198.689 201.54C198.447 201.176 198.139 200.905 197.765 200.728C197.392 200.541 196.986 200.448 196.547 200.448C196.015 200.448 195.535 200.569 195.105 200.812C194.685 201.045 194.354 201.381 194.111 201.82C193.878 202.259 193.761 202.758 193.761 203.318C193.761 203.887 193.878 204.391 194.111 204.83C194.354 205.259 194.685 205.595 195.105 205.838C195.535 206.071 196.015 206.188 196.547 206.188C196.986 206.188 197.392 206.099 197.765 205.922C198.139 205.745 198.447 205.474 198.689 205.11L199.431 205.614C199.142 206.09 198.745 206.454 198.241 206.706C197.737 206.949 197.173 207.07 196.547 207.07ZM205.027 199.58C205.951 199.58 206.683 199.851 207.225 200.392C207.775 200.924 208.051 201.703 208.051 202.73V207H207.057V202.828C207.057 202.063 206.865 201.479 206.483 201.078C206.1 200.677 205.554 200.476 204.845 200.476C204.051 200.476 203.421 200.714 202.955 201.19C202.497 201.657 202.269 202.305 202.269 203.136V207H201.275V196.612H202.269V200.924C202.539 200.495 202.913 200.163 203.389 199.93C203.865 199.697 204.411 199.58 205.027 199.58ZM214.501 199.58C215.425 199.58 216.158 199.851 216.699 200.392C217.25 200.924 217.525 201.703 217.525 202.73V207H216.531V202.828C216.531 202.063 216.34 201.479 215.957 201.078C215.575 200.677 215.029 200.476 214.319 200.476C213.526 200.476 212.896 200.714 212.429 201.19C211.972 201.657 211.743 202.305 211.743 203.136V207H210.749V199.636H211.701V200.994C211.972 200.546 212.345 200.201 212.821 199.958C213.307 199.706 213.867 199.58 214.501 199.58ZM223.261 207.07C222.552 207.07 221.913 206.911 221.343 206.594C220.774 206.267 220.326 205.819 219.999 205.25C219.673 204.681 219.509 204.037 219.509 203.318C219.509 202.599 219.673 201.955 219.999 201.386C220.326 200.817 220.774 200.373 221.343 200.056C221.913 199.739 222.552 199.58 223.261 199.58C223.971 199.58 224.61 199.739 225.179 200.056C225.749 200.373 226.192 200.817 226.509 201.386C226.836 201.955 226.999 202.599 226.999 203.318C226.999 204.037 226.836 204.681 226.509 205.25C226.192 205.819 225.749 206.267 225.179 206.594C224.61 206.911 223.971 207.07 223.261 207.07ZM223.261 206.188C223.784 206.188 224.251 206.071 224.661 205.838C225.081 205.595 225.408 205.255 225.641 204.816C225.875 204.377 225.991 203.878 225.991 203.318C225.991 202.758 225.875 202.259 225.641 201.82C225.408 201.381 225.081 201.045 224.661 200.812C224.251 200.569 223.784 200.448 223.261 200.448C222.739 200.448 222.267 200.569 221.847 200.812C221.437 201.045 221.11 201.381 220.867 201.82C220.634 202.259 220.517 202.758 220.517 203.318C220.517 203.878 220.634 204.377 220.867 204.816C221.11 205.255 221.437 205.595 221.847 205.838C222.267 206.071 222.739 206.188 223.261 206.188ZM229.029 196.612H230.023V207H229.029V196.612ZM235.798 207.07C235.089 207.07 234.45 206.911 233.88 206.594C233.311 206.267 232.863 205.819 232.536 205.25C232.21 204.681 232.046 204.037 232.046 203.318C232.046 202.599 232.21 201.955 232.536 201.386C232.863 200.817 233.311 200.373 233.88 200.056C234.45 199.739 235.089 199.58 235.798 199.58C236.508 199.58 237.147 199.739 237.716 200.056C238.286 200.373 238.729 200.817 239.046 201.386C239.373 201.955 239.536 202.599 239.536 203.318C239.536 204.037 239.373 204.681 239.046 205.25C238.729 205.819 238.286 206.267 237.716 206.594C237.147 206.911 236.508 207.07 235.798 207.07ZM235.798 206.188C236.321 206.188 236.788 206.071 237.198 205.838C237.618 205.595 237.945 205.255 238.178 204.816C238.412 204.377 238.528 203.878 238.528 203.318C238.528 202.758 238.412 202.259 238.178 201.82C237.945 201.381 237.618 201.045 237.198 200.812C236.788 200.569 236.321 200.448 235.798 200.448C235.276 200.448 234.804 200.569 234.384 200.812C233.974 201.045 233.647 201.381 233.404 201.82C233.171 202.259 233.054 202.758 233.054 203.318C233.054 203.878 233.171 204.377 233.404 204.816C233.647 205.255 233.974 205.595 234.384 205.838C234.804 206.071 235.276 206.188 235.798 206.188ZM248.384 199.636V206.104C248.384 207.355 248.076 208.279 247.46 208.876C246.853 209.483 245.934 209.786 244.702 209.786C244.02 209.786 243.372 209.683 242.756 209.478C242.149 209.282 241.654 209.007 241.272 208.652L241.776 207.896C242.13 208.213 242.56 208.461 243.064 208.638C243.577 208.815 244.114 208.904 244.674 208.904C245.607 208.904 246.293 208.685 246.732 208.246C247.17 207.817 247.39 207.145 247.39 206.23V205.292C247.082 205.759 246.676 206.113 246.172 206.356C245.677 206.599 245.126 206.72 244.52 206.72C243.829 206.72 243.199 206.571 242.63 206.272C242.07 205.964 241.626 205.539 241.3 204.998C240.982 204.447 240.824 203.827 240.824 203.136C240.824 202.445 240.982 201.829 241.3 201.288C241.626 200.747 242.07 200.327 242.63 200.028C243.19 199.729 243.82 199.58 244.52 199.58C245.145 199.58 245.71 199.706 246.214 199.958C246.718 200.21 247.124 200.574 247.432 201.05V199.636H248.384ZM244.618 205.838C245.15 205.838 245.63 205.726 246.06 205.502C246.489 205.269 246.82 204.947 247.054 204.536C247.296 204.125 247.418 203.659 247.418 203.136C247.418 202.613 247.296 202.151 247.054 201.75C246.82 201.339 246.489 201.022 246.06 200.798C245.64 200.565 245.159 200.448 244.618 200.448C244.086 200.448 243.605 200.56 243.176 200.784C242.756 201.008 242.424 201.325 242.182 201.736C241.948 202.147 241.832 202.613 241.832 203.136C241.832 203.659 241.948 204.125 242.182 204.536C242.424 204.947 242.756 205.269 243.176 205.502C243.605 205.726 244.086 205.838 244.618 205.838ZM257.351 199.636L253.669 207.882C253.371 208.573 253.025 209.063 252.633 209.352C252.241 209.641 251.77 209.786 251.219 209.786C250.865 209.786 250.533 209.73 250.225 209.618C249.917 209.506 249.651 209.338 249.427 209.114L249.889 208.372C250.263 208.745 250.711 208.932 251.233 208.932C251.569 208.932 251.854 208.839 252.087 208.652C252.33 208.465 252.554 208.148 252.759 207.7L253.081 206.986L249.791 199.636H250.827L253.599 205.894L256.371 199.636H257.351ZM266.293 206.552C266.107 206.72 265.873 206.851 265.593 206.944C265.323 207.028 265.038 207.07 264.739 207.07C264.049 207.07 263.517 206.883 263.143 206.51C262.77 206.137 262.583 205.609 262.583 204.928V200.476H261.267V199.636H262.583V198.026H263.577V199.636H265.817V200.476H263.577V204.872C263.577 205.311 263.685 205.647 263.899 205.88C264.123 206.104 264.441 206.216 264.851 206.216C265.057 206.216 265.253 206.183 265.439 206.118C265.635 206.053 265.803 205.959 265.943 205.838L266.293 206.552ZM270.853 207.07C270.144 207.07 269.504 206.911 268.935 206.594C268.366 206.267 267.918 205.819 267.591 205.25C267.264 204.681 267.101 204.037 267.101 203.318C267.101 202.599 267.264 201.955 267.591 201.386C267.918 200.817 268.366 200.373 268.935 200.056C269.504 199.739 270.144 199.58 270.853 199.58C271.562 199.58 272.202 199.739 272.771 200.056C273.34 200.373 273.784 200.817 274.101 201.386C274.428 201.955 274.591 202.599 274.591 203.318C274.591 204.037 274.428 204.681 274.101 205.25C273.784 205.819 273.34 206.267 272.771 206.594C272.202 206.911 271.562 207.07 270.853 207.07ZM270.853 206.188C271.376 206.188 271.842 206.071 272.253 205.838C272.673 205.595 273 205.255 273.233 204.816C273.466 204.377 273.583 203.878 273.583 203.318C273.583 202.758 273.466 202.259 273.233 201.82C273 201.381 272.673 201.045 272.253 200.812C271.842 200.569 271.376 200.448 270.853 200.448C270.33 200.448 269.859 200.569 269.439 200.812C269.028 201.045 268.702 201.381 268.459 201.82C268.226 202.259 268.109 202.758 268.109 203.318C268.109 203.878 268.226 204.377 268.459 204.816C268.702 205.255 269.028 205.595 269.439 205.838C269.859 206.071 270.33 206.188 270.853 206.188ZM283.336 207.07C282.608 207.07 281.955 206.911 281.376 206.594C280.807 206.277 280.359 205.833 280.032 205.264C279.706 204.685 279.542 204.037 279.542 203.318C279.542 202.599 279.706 201.955 280.032 201.386C280.359 200.817 280.807 200.373 281.376 200.056C281.955 199.739 282.608 199.58 283.336 199.58C283.971 199.58 284.536 199.706 285.03 199.958C285.534 200.201 285.931 200.56 286.22 201.036L285.478 201.54C285.236 201.176 284.928 200.905 284.554 200.728C284.181 200.541 283.775 200.448 283.336 200.448C282.804 200.448 282.324 200.569 281.894 200.812C281.474 201.045 281.143 201.381 280.9 201.82C280.667 202.259 280.55 202.758 280.55 203.318C280.55 203.887 280.667 204.391 280.9 204.83C281.143 205.259 281.474 205.595 281.894 205.838C282.324 206.071 282.804 206.188 283.336 206.188C283.775 206.188 284.181 206.099 284.554 205.922C284.928 205.745 285.236 205.474 285.478 205.11L286.22 205.614C285.931 206.09 285.534 206.454 285.03 206.706C284.526 206.949 283.962 207.07 283.336 207.07ZM289.125 201.078C289.358 200.583 289.704 200.21 290.161 199.958C290.628 199.706 291.202 199.58 291.883 199.58V200.546L291.645 200.532C290.87 200.532 290.264 200.77 289.825 201.246C289.386 201.722 289.167 202.389 289.167 203.248V207H288.173V199.636H289.125V201.078ZM300.027 203.626H293.867C293.923 204.391 294.217 205.012 294.749 205.488C295.281 205.955 295.953 206.188 296.765 206.188C297.222 206.188 297.642 206.109 298.025 205.95C298.407 205.782 298.739 205.539 299.019 205.222L299.579 205.866C299.252 206.258 298.841 206.557 298.347 206.762C297.861 206.967 297.325 207.07 296.737 207.07C295.981 207.07 295.309 206.911 294.721 206.594C294.142 206.267 293.689 205.819 293.363 205.25C293.036 204.681 292.873 204.037 292.873 203.318C292.873 202.599 293.027 201.955 293.335 201.386C293.652 200.817 294.081 200.373 294.623 200.056C295.173 199.739 295.789 199.58 296.471 199.58C297.152 199.58 297.763 199.739 298.305 200.056C298.846 200.373 299.271 200.817 299.579 201.386C299.887 201.946 300.041 202.59 300.041 203.318L300.027 203.626ZM296.471 200.434C295.761 200.434 295.164 200.663 294.679 201.12C294.203 201.568 293.932 202.156 293.867 202.884H299.089C299.023 202.156 298.748 201.568 298.263 201.12C297.787 200.663 297.189 200.434 296.471 200.434ZM304.435 199.58C305.396 199.58 306.133 199.823 306.647 200.308C307.16 200.784 307.417 201.493 307.417 202.436V207H306.465V205.852C306.241 206.235 305.909 206.533 305.471 206.748C305.041 206.963 304.528 207.07 303.931 207.07C303.109 207.07 302.456 206.874 301.971 206.482C301.485 206.09 301.243 205.572 301.243 204.928C301.243 204.303 301.467 203.799 301.915 203.416C302.372 203.033 303.095 202.842 304.085 202.842H306.423V202.394C306.423 201.759 306.245 201.279 305.891 200.952C305.536 200.616 305.018 200.448 304.337 200.448C303.87 200.448 303.422 200.527 302.993 200.686C302.563 200.835 302.195 201.045 301.887 201.316L301.439 200.574C301.812 200.257 302.26 200.014 302.783 199.846C303.305 199.669 303.856 199.58 304.435 199.58ZM304.085 206.286C304.645 206.286 305.125 206.16 305.527 205.908C305.928 205.647 306.227 205.273 306.423 204.788V203.584H304.113C302.853 203.584 302.223 204.023 302.223 204.9C302.223 205.329 302.386 205.67 302.713 205.922C303.039 206.165 303.497 206.286 304.085 206.286ZM313.994 206.552C313.808 206.72 313.574 206.851 313.294 206.944C313.024 207.028 312.739 207.07 312.44 207.07C311.75 207.07 311.218 206.883 310.844 206.51C310.471 206.137 310.284 205.609 310.284 204.928V200.476H308.968V199.636H310.284V198.026H311.278V199.636H313.518V200.476H311.278V204.872C311.278 205.311 311.386 205.647 311.6 205.88C311.824 206.104 312.142 206.216 312.552 206.216C312.758 206.216 312.954 206.183 313.14 206.118C313.336 206.053 313.504 205.959 313.644 205.838L313.994 206.552ZM321.956 203.626H315.796C315.852 204.391 316.146 205.012 316.678 205.488C317.21 205.955 317.882 206.188 318.694 206.188C319.152 206.188 319.572 206.109 319.954 205.95C320.337 205.782 320.668 205.539 320.948 205.222L321.508 205.866C321.182 206.258 320.771 206.557 320.276 206.762C319.791 206.967 319.254 207.07 318.666 207.07C317.91 207.07 317.238 206.911 316.65 206.594C316.072 206.267 315.619 205.819 315.292 205.25C314.966 204.681 314.802 204.037 314.802 203.318C314.802 202.599 314.956 201.955 315.264 201.386C315.582 200.817 316.011 200.373 316.552 200.056C317.103 199.739 317.719 199.58 318.4 199.58C319.082 199.58 319.693 199.739 320.234 200.056C320.776 200.373 321.2 200.817 321.508 201.386C321.816 201.946 321.97 202.59 321.97 203.318L321.956 203.626ZM318.4 200.434C317.691 200.434 317.094 200.663 316.608 201.12C316.132 201.568 315.862 202.156 315.796 202.884H321.018C320.953 202.156 320.678 201.568 320.192 201.12C319.716 200.663 319.119 200.434 318.4 200.434ZM334.293 199.636V207H333.341V205.656C333.08 206.104 332.721 206.454 332.263 206.706C331.806 206.949 331.283 207.07 330.695 207.07C329.734 207.07 328.973 206.804 328.413 206.272C327.863 205.731 327.587 204.942 327.587 203.906V199.636H328.581V203.808C328.581 204.583 328.773 205.171 329.155 205.572C329.538 205.973 330.084 206.174 330.793 206.174C331.568 206.174 332.179 205.941 332.627 205.474C333.075 204.998 333.299 204.34 333.299 203.5V199.636H334.293ZM340.829 199.58C341.753 199.58 342.486 199.851 343.027 200.392C343.578 200.924 343.853 201.703 343.853 202.73V207H342.859V202.828C342.859 202.063 342.668 201.479 342.285 201.078C341.903 200.677 341.357 200.476 340.647 200.476C339.854 200.476 339.224 200.714 338.757 201.19C338.3 201.657 338.071 202.305 338.071 203.136V207H337.077V199.636H338.029V200.994C338.3 200.546 338.673 200.201 339.149 199.958C339.635 199.706 340.195 199.58 340.829 199.58ZM346.552 199.636H347.546V207H346.552V199.636ZM347.056 198.026C346.851 198.026 346.678 197.956 346.538 197.816C346.398 197.676 346.328 197.508 346.328 197.312C346.328 197.125 346.398 196.962 346.538 196.822C346.678 196.682 346.851 196.612 347.056 196.612C347.261 196.612 347.434 196.682 347.574 196.822C347.714 196.953 347.784 197.111 347.784 197.298C347.784 197.503 347.714 197.676 347.574 197.816C347.434 197.956 347.261 198.026 347.056 198.026ZM357.032 199.636V209.716H356.038V205.614C355.73 206.09 355.333 206.454 354.848 206.706C354.372 206.949 353.835 207.07 353.238 207.07C352.538 207.07 351.908 206.916 351.348 206.608C350.797 206.291 350.363 205.847 350.046 205.278C349.728 204.709 349.57 204.055 349.57 203.318C349.57 202.59 349.728 201.941 350.046 201.372C350.363 200.803 350.802 200.364 351.362 200.056C351.922 199.739 352.547 199.58 353.238 199.58C353.854 199.58 354.404 199.711 354.89 199.972C355.384 200.233 355.781 200.607 356.08 201.092V199.636H357.032ZM353.322 206.188C353.835 206.188 354.297 206.071 354.708 205.838C355.128 205.595 355.454 205.255 355.688 204.816C355.93 204.377 356.052 203.878 356.052 203.318C356.052 202.758 355.93 202.263 355.688 201.834C355.454 201.395 355.128 201.055 354.708 200.812C354.297 200.569 353.835 200.448 353.322 200.448C352.799 200.448 352.328 200.569 351.908 200.812C351.497 201.055 351.17 201.395 350.928 201.834C350.694 202.263 350.578 202.758 350.578 203.318C350.578 203.878 350.694 204.377 350.928 204.816C351.17 205.255 351.497 205.595 351.908 205.838C352.328 206.071 352.799 206.188 353.322 206.188ZM366.436 199.636V207H365.484V205.656C365.223 206.104 364.863 206.454 364.406 206.706C363.949 206.949 363.426 207.07 362.838 207.07C361.877 207.07 361.116 206.804 360.556 206.272C360.005 205.731 359.73 204.942 359.73 203.906V199.636H360.724V203.808C360.724 204.583 360.915 205.171 361.298 205.572C361.681 205.973 362.227 206.174 362.936 206.174C363.711 206.174 364.322 205.941 364.77 205.474C365.218 204.998 365.442 204.34 365.442 203.5V199.636H366.436ZM375.632 203.626H369.472C369.528 204.391 369.822 205.012 370.354 205.488C370.886 205.955 371.558 206.188 372.37 206.188C372.827 206.188 373.247 206.109 373.63 205.95C374.013 205.782 374.344 205.539 374.624 205.222L375.184 205.866C374.857 206.258 374.447 206.557 373.952 206.762C373.467 206.967 372.93 207.07 372.342 207.07C371.586 207.07 370.914 206.911 370.326 206.594C369.747 206.267 369.295 205.819 368.968 205.25C368.641 204.681 368.478 204.037 368.478 203.318C368.478 202.599 368.632 201.955 368.94 201.386C369.257 200.817 369.687 200.373 370.228 200.056C370.779 199.739 371.395 199.58 372.076 199.58C372.757 199.58 373.369 199.739 373.91 200.056C374.451 200.373 374.876 200.817 375.184 201.386C375.492 201.946 375.646 202.59 375.646 203.318L375.632 203.626ZM372.076 200.434C371.367 200.434 370.769 200.663 370.284 201.12C369.808 201.568 369.537 202.156 369.472 202.884H374.694C374.629 202.156 374.353 201.568 373.868 201.12C373.392 200.663 372.795 200.434 372.076 200.434ZM24.798 220.626H18.638C18.694 221.391 18.988 222.012 19.52 222.488C20.052 222.955 20.724 223.188 21.536 223.188C21.9933 223.188 22.4133 223.109 22.796 222.95C23.1787 222.782 23.51 222.539 23.79 222.222L24.35 222.866C24.0233 223.258 23.6127 223.557 23.118 223.762C22.6327 223.967 22.096 224.07 21.508 224.07C20.752 224.07 20.08 223.911 19.492 223.594C18.9133 223.267 18.4607 222.819 18.134 222.25C17.8073 221.681 17.644 221.037 17.644 220.318C17.644 219.599 17.798 218.955 18.106 218.386C18.4233 217.817 18.8527 217.373 19.394 217.056C19.9447 216.739 20.5607 216.58 21.242 216.58C21.9233 216.58 22.5347 216.739 23.076 217.056C23.6173 217.373 24.042 217.817 24.35 218.386C24.658 218.946 24.812 219.59 24.812 220.318L24.798 220.626ZM21.242 217.434C20.5327 217.434 19.9353 217.663 19.45 218.12C18.974 218.568 18.7033 219.156 18.638 219.884H23.86C23.7947 219.156 23.5193 218.568 23.034 218.12C22.558 217.663 21.9607 217.434 21.242 217.434ZM31.3201 224L28.9821 220.92L26.6301 224H25.5101L28.4221 220.22L25.6501 216.636H26.7701L28.9821 219.52L31.1941 216.636H32.2861L29.5141 220.22L32.4541 224H31.3201ZM37.9027 216.58C38.5933 216.58 39.2187 216.739 39.7787 217.056C40.3387 217.364 40.7773 217.803 41.0947 218.372C41.412 218.941 41.5707 219.59 41.5707 220.318C41.5707 221.055 41.412 221.709 41.0947 222.278C40.7773 222.847 40.3387 223.291 39.7787 223.608C39.228 223.916 38.6027 224.07 37.9027 224.07C37.3053 224.07 36.764 223.949 36.2787 223.706C35.8027 223.454 35.4107 223.09 35.1027 222.614V226.716H34.1087V216.636H35.0607V218.092C35.3593 217.607 35.7513 217.233 36.2367 216.972C36.7313 216.711 37.2867 216.58 37.9027 216.58ZM37.8327 223.188C38.346 223.188 38.8127 223.071 39.2327 222.838C39.6527 222.595 39.9793 222.255 40.2127 221.816C40.4553 221.377 40.5767 220.878 40.5767 220.318C40.5767 219.758 40.4553 219.263 40.2127 218.834C39.9793 218.395 39.6527 218.055 39.2327 217.812C38.8127 217.569 38.346 217.448 37.8327 217.448C37.31 217.448 36.8387 217.569 36.4187 217.812C36.008 218.055 35.6813 218.395 35.4387 218.834C35.2053 219.263 35.0887 219.758 35.0887 220.318C35.0887 220.878 35.2053 221.377 35.4387 221.816C35.6813 222.255 36.008 222.595 36.4187 222.838C36.8387 223.071 37.31 223.188 37.8327 223.188ZM50.0089 220.626H43.8489C43.9049 221.391 44.1989 222.012 44.7309 222.488C45.2629 222.955 45.9349 223.188 46.7469 223.188C47.2043 223.188 47.6243 223.109 48.0069 222.95C48.3896 222.782 48.7209 222.539 49.0009 222.222L49.5609 222.866C49.2343 223.258 48.8236 223.557 48.3289 223.762C47.8436 223.967 47.3069 224.07 46.7189 224.07C45.9629 224.07 45.2909 223.911 44.7029 223.594C44.1243 223.267 43.6716 222.819 43.3449 222.25C43.0183 221.681 42.8549 221.037 42.8549 220.318C42.8549 219.599 43.0089 218.955 43.3169 218.386C43.6343 217.817 44.0636 217.373 44.6049 217.056C45.1556 216.739 45.7716 216.58 46.4529 216.58C47.1343 216.58 47.7456 216.739 48.2869 217.056C48.8283 217.373 49.2529 217.817 49.5609 218.386C49.8689 218.946 50.0229 219.59 50.0229 220.318L50.0089 220.626ZM46.4529 217.434C45.7436 217.434 45.1463 217.663 44.6609 218.12C44.1849 218.568 43.9143 219.156 43.8489 219.884H49.0709C49.0056 219.156 48.7303 218.568 48.2449 218.12C47.7689 217.663 47.1716 217.434 46.4529 217.434ZM52.9982 218.078C53.2315 217.583 53.5768 217.21 54.0342 216.958C54.5008 216.706 55.0748 216.58 55.7562 216.58V217.546L55.5182 217.532C54.7435 217.532 54.1368 217.77 53.6982 218.246C53.2595 218.722 53.0402 219.389 53.0402 220.248V224H52.0462V216.636H52.9982V218.078ZM57.5559 216.636H58.5499V224H57.5559V216.636ZM58.0599 215.026C57.8546 215.026 57.6819 214.956 57.5419 214.816C57.4019 214.676 57.3319 214.508 57.3319 214.312C57.3319 214.125 57.4019 213.962 57.5419 213.822C57.6819 213.682 57.8546 213.612 58.0599 213.612C58.2653 213.612 58.4379 213.682 58.5779 213.822C58.7179 213.953 58.7879 214.111 58.7879 214.298C58.7879 214.503 58.7179 214.676 58.5779 214.816C58.4379 214.956 58.2653 215.026 58.0599 215.026ZM67.7277 220.626H61.5677C61.6237 221.391 61.9177 222.012 62.4497 222.488C62.9817 222.955 63.6537 223.188 64.4657 223.188C64.923 223.188 65.343 223.109 65.7257 222.95C66.1084 222.782 66.4397 222.539 66.7197 222.222L67.2797 222.866C66.953 223.258 66.5424 223.557 66.0477 223.762C65.5624 223.967 65.0257 224.07 64.4377 224.07C63.6817 224.07 63.0097 223.911 62.4217 223.594C61.843 223.267 61.3904 222.819 61.0637 222.25C60.737 221.681 60.5737 221.037 60.5737 220.318C60.5737 219.599 60.7277 218.955 61.0357 218.386C61.353 217.817 61.7824 217.373 62.3237 217.056C62.8744 216.739 63.4904 216.58 64.1717 216.58C64.853 216.58 65.4644 216.739 66.0057 217.056C66.547 217.373 66.9717 217.817 67.2797 218.386C67.5877 218.946 67.7417 219.59 67.7417 220.318L67.7277 220.626ZM64.1717 217.434C63.4624 217.434 62.865 217.663 62.3797 218.12C61.9037 218.568 61.633 219.156 61.5677 219.884H66.7897C66.7244 219.156 66.449 218.568 65.9637 218.12C65.4877 217.663 64.8904 217.434 64.1717 217.434ZM73.5169 216.58C74.4409 216.58 75.1736 216.851 75.7149 217.392C76.2656 217.924 76.5409 218.703 76.5409 219.73V224H75.5469V219.828C75.5469 219.063 75.3556 218.479 74.9729 218.078C74.5902 217.677 74.0442 217.476 73.3349 217.476C72.5416 217.476 71.9116 217.714 71.4449 218.19C70.9876 218.657 70.7589 219.305 70.7589 220.136V224H69.7649V216.636H70.7169V217.994C70.9876 217.546 71.3609 217.201 71.8369 216.958C72.3222 216.706 72.8822 216.58 73.5169 216.58ZM82.3189 224.07C81.5909 224.07 80.9375 223.911 80.3589 223.594C79.7895 223.277 79.3415 222.833 79.0149 222.264C78.6882 221.685 78.5249 221.037 78.5249 220.318C78.5249 219.599 78.6882 218.955 79.0149 218.386C79.3415 217.817 79.7895 217.373 80.3589 217.056C80.9375 216.739 81.5909 216.58 82.3189 216.58C82.9535 216.58 83.5182 216.706 84.0129 216.958C84.5169 217.201 84.9135 217.56 85.2029 218.036L84.4609 218.54C84.2182 218.176 83.9102 217.905 83.5369 217.728C83.1635 217.541 82.7575 217.448 82.3189 217.448C81.7869 217.448 81.3062 217.569 80.8769 217.812C80.4569 218.045 80.1255 218.381 79.8829 218.82C79.6495 219.259 79.5329 219.758 79.5329 220.318C79.5329 220.887 79.6495 221.391 79.8829 221.83C80.1255 222.259 80.4569 222.595 80.8769 222.838C81.3062 223.071 81.7869 223.188 82.3189 223.188C82.7575 223.188 83.1635 223.099 83.5369 222.922C83.9102 222.745 84.2182 222.474 84.4609 222.11L85.2029 222.614C84.9135 223.09 84.5169 223.454 84.0129 223.706C83.5089 223.949 82.9442 224.07 82.3189 224.07ZM93.4445 220.626H87.2845C87.3405 221.391 87.6345 222.012 88.1665 222.488C88.6985 222.955 89.3705 223.188 90.1825 223.188C90.6398 223.188 91.0598 223.109 91.4425 222.95C91.8252 222.782 92.1565 222.539 92.4365 222.222L92.9965 222.866C92.6698 223.258 92.2592 223.557 91.7645 223.762C91.2792 223.967 90.7425 224.07 90.1545 224.07C89.3985 224.07 88.7265 223.911 88.1385 223.594C87.5598 223.267 87.1072 222.819 86.7805 222.25C86.4538 221.681 86.2905 221.037 86.2905 220.318C86.2905 219.599 86.4445 218.955 86.7525 218.386C87.0698 217.817 87.4992 217.373 88.0405 217.056C88.5912 216.739 89.2072 216.58 89.8885 216.58C90.5698 216.58 91.1812 216.739 91.7225 217.056C92.2638 217.373 92.6885 217.817 92.9965 218.386C93.3045 218.946 93.4585 219.59 93.4585 220.318L93.4445 220.626ZM89.8885 217.434C89.1792 217.434 88.5818 217.663 88.0965 218.12C87.6205 218.568 87.3498 219.156 87.2845 219.884H92.5065C92.4412 219.156 92.1658 218.568 91.6805 218.12C91.2045 217.663 90.6072 217.434 89.8885 217.434ZM101.582 214.382C101.152 214.382 100.826 214.499 100.602 214.732C100.387 214.965 100.28 215.311 100.28 215.768V216.636H102.548V217.476H100.308V224H99.3138V217.476H97.9978V216.636H99.3138V215.726C99.3138 215.054 99.5051 214.522 99.8878 214.13C100.28 213.738 100.83 213.542 101.54 213.542C101.82 213.542 102.09 213.584 102.352 213.668C102.613 213.743 102.832 213.855 103.01 214.004L102.674 214.746C102.384 214.503 102.02 214.382 101.582 214.382ZM106.777 224.07C106.068 224.07 105.428 223.911 104.859 223.594C104.29 223.267 103.842 222.819 103.515 222.25C103.188 221.681 103.025 221.037 103.025 220.318C103.025 219.599 103.188 218.955 103.515 218.386C103.842 217.817 104.29 217.373 104.859 217.056C105.428 216.739 106.068 216.58 106.777 216.58C107.486 216.58 108.126 216.739 108.695 217.056C109.264 217.373 109.708 217.817 110.025 218.386C110.352 218.955 110.515 219.599 110.515 220.318C110.515 221.037 110.352 221.681 110.025 222.25C109.708 222.819 109.264 223.267 108.695 223.594C108.126 223.911 107.486 224.07 106.777 224.07ZM106.777 223.188C107.3 223.188 107.766 223.071 108.177 222.838C108.597 222.595 108.924 222.255 109.157 221.816C109.39 221.377 109.507 220.878 109.507 220.318C109.507 219.758 109.39 219.259 109.157 218.82C108.924 218.381 108.597 218.045 108.177 217.812C107.766 217.569 107.3 217.448 106.777 217.448C106.254 217.448 105.783 217.569 105.363 217.812C104.952 218.045 104.626 218.381 104.383 218.82C104.15 219.259 104.033 219.758 104.033 220.318C104.033 220.878 104.15 221.377 104.383 221.816C104.626 222.255 104.952 222.595 105.363 222.838C105.783 223.071 106.254 223.188 106.777 223.188ZM113.496 218.078C113.73 217.583 114.075 217.21 114.532 216.958C114.999 216.706 115.573 216.58 116.254 216.58V217.546L116.016 217.532C115.242 217.532 114.635 217.77 114.196 218.246C113.758 218.722 113.538 219.389 113.538 220.248V224H112.544V216.636H113.496V218.078ZM124.263 214.382C123.834 214.382 123.507 214.499 123.283 214.732C123.069 214.965 122.961 215.311 122.961 215.768V216.636H125.229V217.476H122.989V224H121.995V217.476H120.679V216.636H121.995V215.726C121.995 215.054 122.187 214.522 122.569 214.13C122.961 213.738 123.512 213.542 124.221 213.542C124.501 213.542 124.772 213.584 125.033 213.668C125.295 213.743 125.514 213.855 125.691 214.004L125.355 214.746C125.066 214.503 124.702 214.382 124.263 214.382ZM129.011 216.58C129.972 216.58 130.709 216.823 131.223 217.308C131.736 217.784 131.993 218.493 131.993 219.436V224H131.041V222.852C130.817 223.235 130.485 223.533 130.047 223.748C129.617 223.963 129.104 224.07 128.507 224.07C127.685 224.07 127.032 223.874 126.547 223.482C126.061 223.09 125.819 222.572 125.819 221.928C125.819 221.303 126.043 220.799 126.491 220.416C126.948 220.033 127.671 219.842 128.661 219.842H130.999V219.394C130.999 218.759 130.821 218.279 130.467 217.952C130.112 217.616 129.594 217.448 128.913 217.448C128.446 217.448 127.998 217.527 127.569 217.686C127.139 217.835 126.771 218.045 126.463 218.316L126.015 217.574C126.388 217.257 126.836 217.014 127.359 216.846C127.881 216.669 128.432 216.58 129.011 216.58ZM128.661 223.286C129.221 223.286 129.701 223.16 130.103 222.908C130.504 222.647 130.803 222.273 130.999 221.788V220.584H128.689C127.429 220.584 126.799 221.023 126.799 221.9C126.799 222.329 126.962 222.67 127.289 222.922C127.615 223.165 128.073 223.286 128.661 223.286ZM138.445 216.58C139.369 216.58 140.101 216.851 140.643 217.392C141.193 217.924 141.469 218.703 141.469 219.73V224H140.475V219.828C140.475 219.063 140.283 218.479 139.901 218.078C139.518 217.677 138.972 217.476 138.263 217.476C137.469 217.476 136.839 217.714 136.373 218.19C135.915 218.657 135.687 219.305 135.687 220.136V224H134.693V216.636H135.645V217.994C135.915 217.546 136.289 217.201 136.765 216.958C137.25 216.706 137.81 216.58 138.445 216.58ZM146.141 224.07C145.544 224.07 144.97 223.986 144.419 223.818C143.878 223.641 143.453 223.421 143.145 223.16L143.593 222.376C143.901 222.619 144.289 222.819 144.755 222.978C145.222 223.127 145.707 223.202 146.211 223.202C146.883 223.202 147.378 223.099 147.695 222.894C148.022 222.679 148.185 222.381 148.185 221.998C148.185 221.727 148.097 221.517 147.919 221.368C147.742 221.209 147.518 221.093 147.247 221.018C146.977 220.934 146.617 220.855 146.169 220.78C145.572 220.668 145.091 220.556 144.727 220.444C144.363 220.323 144.051 220.122 143.789 219.842C143.537 219.562 143.411 219.175 143.411 218.68C143.411 218.064 143.668 217.56 144.181 217.168C144.695 216.776 145.409 216.58 146.323 216.58C146.799 216.58 147.275 216.645 147.751 216.776C148.227 216.897 148.619 217.061 148.927 217.266L148.493 218.064C147.887 217.644 147.163 217.434 146.323 217.434C145.689 217.434 145.208 217.546 144.881 217.77C144.564 217.994 144.405 218.288 144.405 218.652C144.405 218.932 144.494 219.156 144.671 219.324C144.858 219.492 145.087 219.618 145.357 219.702C145.628 219.777 146.001 219.856 146.477 219.94C147.065 220.052 147.537 220.164 147.891 220.276C148.246 220.388 148.549 220.579 148.801 220.85C149.053 221.121 149.179 221.494 149.179 221.97C149.179 222.614 148.909 223.127 148.367 223.51C147.835 223.883 147.093 224.07 146.141 224.07ZM151.115 224.07C150.91 224.07 150.732 223.995 150.583 223.846C150.443 223.697 150.373 223.515 150.373 223.3C150.373 223.085 150.443 222.908 150.583 222.768C150.732 222.619 150.91 222.544 151.115 222.544C151.32 222.544 151.498 222.619 151.647 222.768C151.796 222.908 151.871 223.085 151.871 223.3C151.871 223.515 151.796 223.697 151.647 223.846C151.498 223.995 151.32 224.07 151.115 224.07Z" fill="#F1D2B6"/>
<g id="Frame 2" filter="url(#filter0_d_1_2)">
<rect x="17" y="241" width="122" height="36" rx="5" fill="#A65E46"/>
<g id="Group">
<path id="Vector" d="M41.4853 250.515C39.2188 248.248 36.2053 247 33 247C29.7947 247 26.7812 248.248 24.5147 250.515C22.2482 252.781 21 255.795 21 259C21 262.205 22.2482 265.219 24.5147 267.485C26.7812 269.752 29.7947 271 33 271C36.2053 271 39.2188 269.752 41.4853 267.485C43.7518 265.219 45 262.205 45 259C45 255.795 43.7518 252.781 41.4853 250.515ZM33 269.515C27.2017 269.515 22.4845 264.798 22.4845 259C22.4845 253.202 27.2017 248.485 33 248.485C38.7983 248.485 43.5155 253.202 43.5155 259C43.5155 264.798 38.7983 269.515 33 269.515Z" fill="#F1D2B6"/>
<path id="Vector_2" d="M29.9598 263.655L38.0196 259L29.9598 254.345V263.655Z" fill="#F1D2B6"/>
</g>
<path id="CREATE" d="M60.36 266.2C58.9467 266.2 57.6667 265.893 56.52 265.28C55.3867 264.653 54.4933 263.793 53.84 262.7C53.2 261.607 52.88 260.373 52.88 259C52.88 257.627 53.2067 256.393 53.86 255.3C54.5133 254.207 55.4067 253.353 56.54 252.74C57.6867 252.113 58.9667 251.8 60.38 251.8C61.5267 251.8 62.5733 252 63.52 252.4C64.4667 252.8 65.2667 253.38 65.92 254.14L64.24 255.72C63.2267 254.627 61.98 254.08 60.5 254.08C59.54 254.08 58.68 254.293 57.92 254.72C57.16 255.133 56.5667 255.713 56.14 256.46C55.7133 257.207 55.5 258.053 55.5 259C55.5 259.947 55.7133 260.793 56.14 261.54C56.5667 262.287 57.16 262.873 57.92 263.3C58.68 263.713 59.54 263.92 60.5 263.92C61.98 263.92 63.2267 263.367 64.24 262.26L65.92 263.86C65.2667 264.62 64.46 265.2 63.5 265.6C62.5533 266 61.5067 266.2 60.36 266.2ZM77.5713 266L74.7113 261.9C74.5913 261.913 74.4113 261.92 74.1713 261.92H71.0113V266H68.4113V252H74.1713C75.3846 252 76.4379 252.2 77.3313 252.6C78.2379 253 78.9313 253.573 79.4113 254.32C79.8913 255.067 80.1313 255.953 80.1313 256.98C80.1313 258.033 79.8713 258.94 79.3513 259.7C78.8446 260.46 78.1113 261.027 77.1513 261.4L80.3713 266H77.5713ZM77.5113 256.98C77.5113 256.087 77.2179 255.4 76.6312 254.92C76.0446 254.44 75.1846 254.2 74.0513 254.2H71.0113V259.78H74.0513C75.1846 259.78 76.0446 259.54 76.6312 259.06C77.2179 258.567 77.5113 257.873 77.5113 256.98ZM93.5402 263.82V266H83.0402V252H93.2602V254.18H85.6402V257.82H92.4002V259.96H85.6402V263.82H93.5402ZM105.519 262.76H98.5186L97.1386 266H94.4586L100.759 252H103.319L109.639 266H106.919L105.519 262.76ZM104.659 260.72L102.019 254.6L99.3986 260.72H104.659ZM113.556 254.2H108.916V252H120.796V254.2H116.156V266H113.556V254.2ZM133.247 263.82V266H122.747V252H132.967V254.18H125.347V257.82H132.107V259.96H125.347V263.82H133.247Z" fill="#F1D2B6"/>
</g>
<g id="Frame 3" filter="url(#filter1_d_1_2)">
<rect x="16" y="9" width="239" height="30" rx="5" fill="#D9AA90"/>
<g id="landing-text (1) 1">
<path id="Vector_3" d="M32.148 28.1711H31.4265C31.3406 28.1711 31.2709 28.0969 31.2709 28.0053V25.6909H26.7256V28.0053C26.7256 28.0969 26.656 28.1711 26.5701 28.1711H25.8485C25.7627 28.1711 25.693 28.0969 25.693 28.0053V20.2945C25.693 20.203 25.7627 20.1288 25.8485 20.1288H26.5701C26.656 20.1288 26.7256 20.203 26.7256 20.2945V22.5492H31.2709V20.2945C31.2709 20.203 31.3406 20.1288 31.4265 20.1288H32.148C32.234 20.1288 32.3036 20.203 32.3036 20.2945L32.3035 28.0053C32.3035 28.0969 32.2339 28.1711 32.148 28.1711ZM26.7744 24.7631H31.3197V23.4816H26.7744V24.7631Z" fill="#07203F"/>
<g id="Group_2">
<path id="Vector_4" d="M37.3914 21.901C36.7907 19.6591 35.3529 17.7854 33.3429 16.6249C31.3329 15.4645 28.9912 15.1561 26.7494 15.7569C24.5075 16.3576 22.6337 17.7953 21.4733 19.8053C20.3128 21.8153 20.0045 24.157 20.6052 26.3988C21.2059 28.6407 22.6437 30.5144 24.6537 31.675C25.9927 32.448 27.4784 32.8428 28.9841 32.8428C29.7388 32.8428 30.4987 32.7436 31.2472 32.543C33.4891 31.9423 35.3628 30.5045 36.5234 28.4945C37.6838 26.4845 37.9921 24.1429 37.3914 21.901ZM36.9352 25.9923L36.3301 25.8301C36.1846 25.7912 36.0352 25.8774 35.9962 26.0229C35.9573 26.1683 36.0436 26.3178 36.189 26.3567L36.7928 26.5185C36.6132 27.1058 36.3659 27.6769 36.0512 28.2219C35.7372 28.7657 35.3672 29.2645 34.9496 29.713L34.5548 29.3182C34.543 29.2973 34.5283 29.2778 34.5106 29.26C34.4045 29.1532 34.2316 29.153 34.1247 29.2591L34.118 29.2656C34.0666 29.3167 34.0377 29.3862 34.0375 29.4586C34.0374 29.531 34.0661 29.6005 34.1173 29.6518L34.5651 30.0995C33.6645 30.9443 32.5773 31.5743 31.3681 31.941L31.2056 31.3344C31.1868 31.2644 31.1409 31.2047 31.0781 31.1686C31.0152 31.1324 30.9405 31.1228 30.8707 31.1419L30.8621 31.1444C30.7166 31.183 30.6301 31.3323 30.6688 31.4778C30.6755 31.5031 30.6855 31.5266 30.6984 31.548L30.8415 32.0821C29.6116 32.369 28.3557 32.3672 27.154 32.0862L27.3162 31.4809C27.3552 31.3355 27.2688 31.186 27.1234 31.1471C26.978 31.1082 26.8285 31.1944 26.7895 31.3398L26.6277 31.9439C26.0412 31.7643 25.4707 31.5171 24.9263 31.2028C24.3817 30.8884 23.8822 30.5177 23.4332 30.0994L23.8808 29.6518C23.9873 29.5453 23.9873 29.3727 23.8808 29.2663L23.8734 29.259C23.7669 29.1526 23.5943 29.1526 23.4878 29.259C23.4695 29.2774 23.4542 29.2977 23.4422 29.3194L23.0468 29.7148C22.2026 28.8142 21.5731 27.7271 21.2067 26.5182L21.8092 26.3567C21.9546 26.3178 22.0409 26.1683 22.002 26.0229C21.963 25.8775 21.8136 25.7912 21.668 25.8301L21.0658 25.9915C20.7791 24.7615 20.7812 23.5055 21.0624 22.3036L21.6884 22.4713C21.712 22.4777 21.7357 22.4807 21.7591 22.4807C21.8795 22.4807 21.9896 22.4004 22.0222 22.2786C22.0612 22.1331 21.9749 21.9837 21.8295 21.9447L21.2049 21.7773C21.3845 21.1915 21.6315 20.6217 21.9454 20.078C22.2601 19.533 22.6309 19.0333 23.0496 18.5841L23.5038 19.0383C23.557 19.0915 23.6268 19.1181 23.6966 19.1181C23.7663 19.1181 23.8361 19.0915 23.8893 19.0383C23.9958 18.9318 23.9958 18.7592 23.8893 18.6527L23.4343 18.1977C24.3343 17.3542 25.4205 16.7252 26.6284 16.3589L26.7941 16.9771C26.8268 17.0989 26.9369 17.1792 27.0573 17.1792C27.0806 17.1792 27.1044 17.1762 27.128 17.1698C27.2734 17.1309 27.3598 16.9814 27.3208 16.836L27.1549 16.2173C27.7706 16.0736 28.3928 16.0025 29.0116 16.0025C29.6287 16.0025 30.2424 16.0733 30.8426 16.2136L30.675 16.8392C30.636 16.9846 30.7223 17.1341 30.8677 17.173C30.8914 17.1794 30.9151 17.1824 30.9384 17.1824C31.0588 17.1824 31.169 17.1021 31.2016 16.9803L31.369 16.3556C31.9555 16.5353 32.5259 16.7827 33.0703 17.097C33.6145 17.4113 34.1135 17.7815 34.5622 18.1994L34.1089 18.6527C34.0024 18.7592 34.0024 18.9318 34.1089 19.0383C34.1621 19.0915 34.2319 19.1181 34.3016 19.1181C34.3714 19.1181 34.4412 19.0915 34.4944 19.0383L34.9487 18.584C35.7927 19.484 36.4222 20.5704 36.7889 21.7785L36.1687 21.9447C36.0233 21.9837 35.937 22.1331 35.9759 22.2786C36.0086 22.4004 36.1187 22.4807 36.2391 22.4807C36.2624 22.4807 36.2862 22.4777 36.3098 22.4713L36.9301 22.3052C37.2172 23.5348 37.2157 24.7905 36.9352 25.9923Z" fill="#07203F"/>
</g>
<path id="Vector_5" d="M36.5041 23.8856H35.894C35.8746 23.3813 35.7994 22.8715 35.6634 22.364C35.528 21.8587 35.3393 21.3817 35.1054 20.937L35.6285 20.6349C35.7589 20.5597 35.8036 20.393 35.7283 20.2626C35.653 20.1322 35.4863 20.0876 35.3559 20.1628L34.8328 20.4648C34.2782 19.5878 33.5376 18.8594 32.6805 18.3186L32.9864 17.7887C33.0616 17.6583 33.017 17.4916 32.8866 17.4163C32.7562 17.3411 32.5895 17.3857 32.5142 17.5161L32.2083 18.0459C31.3106 17.5734 30.3084 17.2968 29.2706 17.255V16.6521C29.2706 16.5015 29.1486 16.3795 28.998 16.3795C28.8474 16.3795 28.7254 16.5015 28.7254 16.6521V17.2548C28.2239 17.2746 27.7171 17.3496 27.2124 17.4848C26.7079 17.62 26.2316 17.8083 25.7874 18.0418L25.484 17.5161C25.4087 17.3857 25.242 17.3411 25.1116 17.4163C24.9812 17.4916 24.9365 17.6583 25.0118 17.7887L25.3152 18.3141C24.4377 18.8686 23.709 19.6091 23.1679 20.4662L22.6423 20.1628C22.5119 20.0875 22.3452 20.1322 22.2698 20.2626C22.1946 20.393 22.2393 20.5597 22.3697 20.6349L22.8952 20.9383C22.4209 21.8387 22.1438 22.8444 22.103 23.8856H21.492C21.3414 23.8856 21.2193 24.0076 21.2193 24.1582C21.2193 24.3087 21.3414 24.4308 21.492 24.4308H22.1034C22.1238 24.9297 22.1987 25.4338 22.3332 25.9358C22.4688 26.4421 22.6581 26.9199 22.8927 27.3654L22.3723 27.6658C22.242 27.741 22.1973 27.9078 22.2726 28.0381C22.3231 28.1256 22.4147 28.1745 22.5089 28.1745C22.5552 28.1745 22.602 28.1627 22.645 28.138L23.1657 27.8373C23.7205 28.7134 24.4602 29.4418 25.317 29.9821L25.0467 30.4502C25.0288 30.4676 25.013 30.4877 24.9999 30.5104C24.9249 30.6409 24.9699 30.8076 25.1005 30.8826L25.1102 30.888C25.1528 30.9123 25.1993 30.924 25.2452 30.924C25.3394 30.924 25.431 30.875 25.4815 30.7876L25.7891 30.2547C26.6864 30.7268 27.6881 31.003 28.7254 31.0448V31.6643C28.7254 31.8148 28.8474 31.9369 28.998 31.9369C29.1486 31.9369 29.2706 31.8148 29.2706 31.6643V31.0453C29.7723 31.0255 30.2795 30.9503 30.7842 30.815C31.2892 30.6797 31.766 30.4911 32.2105 30.2573L32.5167 30.7876C32.5671 30.8749 32.659 30.9235 32.7534 30.9235C32.7995 30.9235 32.8462 30.9119 32.8891 30.8874L32.8977 30.8826C33.0283 30.8076 33.0729 30.6412 32.9979 30.5106C32.9852 30.4884 32.9698 30.4687 32.9523 30.4516L32.6828 29.9848C33.5592 29.4307 34.287 28.6908 34.8278 27.8346L35.3532 28.138C35.3962 28.1627 35.443 28.1745 35.4893 28.1745C35.5834 28.1745 35.6751 28.1256 35.7256 28.0381C35.8009 27.9078 35.7562 27.741 35.6258 27.6658L35.1006 27.3626C35.5727 26.4666 35.8505 25.4667 35.8934 24.4308H36.5041C36.6547 24.4308 36.7767 24.3088 36.7767 24.1582C36.7767 24.0076 36.6547 23.8856 36.5041 23.8856ZM32.1826 29.6499C32.1805 29.651 32.1784 29.6519 32.1765 29.653C32.1742 29.6544 32.1722 29.6558 32.1699 29.6573C31.701 29.9274 31.1901 30.1419 30.6431 30.2883C30.0942 30.4355 29.5428 30.5057 28.9998 30.5056C26.7444 30.5055 24.6386 29.2937 23.5046 27.3451C23.5022 27.3405 23.5 27.3357 23.4973 27.331C23.4944 27.3259 23.4911 27.3212 23.4879 27.3164C23.2191 26.8489 23.0059 26.3397 22.8598 25.7948C22.7189 25.2687 22.6487 24.7402 22.643 24.2192C22.6475 24.1995 22.6502 24.1792 22.6502 24.1582C22.6502 24.1374 22.6476 24.1173 22.6432 24.0978C22.6669 21.313 24.5356 18.7665 27.3535 18.0115C27.9024 17.8644 28.4538 17.7942 28.9969 17.7942C31.8024 17.7942 34.3769 19.6693 35.1368 22.5051C35.8959 25.338 34.6073 28.2453 32.1826 29.6499Z" fill="#07203F"/>
</g>
<path id="Powered with Hedera Hashgraph" d="M49.512 18.6C50.584 18.6 51.424 18.856 52.032 19.368C52.64 19.88 52.944 20.584 52.944 21.48C52.944 22.376 52.64 23.08 52.032 23.592C51.424 24.096 50.584 24.348 49.512 24.348H47.256V27H46.368V18.6H49.512ZM49.488 23.568C50.32 23.568 50.956 23.388 51.396 23.028C51.836 22.66 52.056 22.144 52.056 21.48C52.056 20.8 51.836 20.28 51.396 19.92C50.956 19.552 50.32 19.368 49.488 19.368H47.256V23.568H49.488ZM57.2289 27.06C56.6209 27.06 56.0729 26.924 55.5849 26.652C55.0969 26.372 54.7129 25.988 54.4329 25.5C54.1529 25.012 54.0129 24.46 54.0129 23.844C54.0129 23.228 54.1529 22.676 54.4329 22.188C54.7129 21.7 55.0969 21.32 55.5849 21.048C56.0729 20.776 56.6209 20.64 57.2289 20.64C57.8369 20.64 58.3849 20.776 58.8729 21.048C59.3609 21.32 59.7409 21.7 60.0129 22.188C60.2929 22.676 60.4329 23.228 60.4329 23.844C60.4329 24.46 60.2929 25.012 60.0129 25.5C59.7409 25.988 59.3609 26.372 58.8729 26.652C58.3849 26.924 57.8369 27.06 57.2289 27.06ZM57.2289 26.304C57.6769 26.304 58.0769 26.204 58.4289 26.004C58.7889 25.796 59.0689 25.504 59.2689 25.128C59.4689 24.752 59.5689 24.324 59.5689 23.844C59.5689 23.364 59.4689 22.936 59.2689 22.56C59.0689 22.184 58.7889 21.896 58.4289 21.696C58.0769 21.488 57.6769 21.384 57.2289 21.384C56.7809 21.384 56.3769 21.488 56.0169 21.696C55.6649 21.896 55.3849 22.184 55.1769 22.56C54.9769 22.936 54.8769 23.364 54.8769 23.844C54.8769 24.324 54.9769 24.752 55.1769 25.128C55.3849 25.504 55.6649 25.796 56.0169 26.004C56.3769 26.204 56.7809 26.304 57.2289 26.304ZM71.2606 20.688L68.8726 27H68.0686L66.0766 21.828L64.0846 27H63.2806L60.9046 20.688H61.7206L63.7006 26.052L65.7286 20.688H66.4606L68.4766 26.052L70.4806 20.688H71.2606ZM77.8637 24.108H72.5837C72.6317 24.764 72.8837 25.296 73.3397 25.704C73.7957 26.104 74.3717 26.304 75.0677 26.304C75.4597 26.304 75.8197 26.236 76.1477 26.1C76.4757 25.956 76.7597 25.748 76.9997 25.476L77.4797 26.028C77.1997 26.364 76.8477 26.62 76.4237 26.796C76.0077 26.972 75.5477 27.06 75.0437 27.06C74.3957 27.06 73.8197 26.924 73.3157 26.652C72.8197 26.372 72.4317 25.988 72.1517 25.5C71.8717 25.012 71.7317 24.46 71.7317 23.844C71.7317 23.228 71.8637 22.676 72.1277 22.188C72.3997 21.7 72.7677 21.32 73.2317 21.048C73.7037 20.776 74.2317 20.64 74.8157 20.64C75.3997 20.64 75.9237 20.776 76.3877 21.048C76.8517 21.32 77.2157 21.7 77.4797 22.188C77.7437 22.668 77.8757 23.22 77.8757 23.844L77.8637 24.108ZM74.8157 21.372C74.2077 21.372 73.6957 21.568 73.2797 21.96C72.8717 22.344 72.6397 22.848 72.5837 23.472H77.0597C77.0037 22.848 76.7677 22.344 76.3517 21.96C75.9437 21.568 75.4317 21.372 74.8157 21.372ZM80.4259 21.924C80.6259 21.5 80.9219 21.18 81.3139 20.964C81.7139 20.748 82.2059 20.64 82.7899 20.64V21.468L82.5859 21.456C81.9219 21.456 81.4019 21.66 81.0259 22.068C80.6499 22.476 80.4619 23.048 80.4619 23.784V27H79.6099V20.688H80.4259V21.924ZM89.7699 24.108H84.4899C84.5379 24.764 84.7899 25.296 85.2459 25.704C85.7019 26.104 86.2779 26.304 86.9739 26.304C87.3659 26.304 87.7259 26.236 88.0539 26.1C88.3819 25.956 88.6659 25.748 88.9059 25.476L89.3859 26.028C89.1059 26.364 88.7539 26.62 88.3299 26.796C87.9139 26.972 87.4539 27.06 86.9499 27.06C86.3019 27.06 85.7259 26.924 85.2219 26.652C84.7259 26.372 84.3379 25.988 84.0579 25.5C83.7779 25.012 83.6379 24.46 83.6379 23.844C83.6379 23.228 83.7699 22.676 84.0339 22.188C84.3059 21.7 84.6739 21.32 85.1379 21.048C85.6099 20.776 86.1379 20.64 86.7219 20.64C87.3059 20.64 87.8299 20.776 88.2939 21.048C88.7579 21.32 89.1219 21.7 89.3859 22.188C89.6499 22.668 89.7819 23.22 89.7819 23.844L89.7699 24.108ZM86.7219 21.372C86.1139 21.372 85.6019 21.568 85.1859 21.96C84.7779 22.344 84.5459 22.848 84.4899 23.472H88.9659C88.9099 22.848 88.6739 22.344 88.2579 21.96C87.8499 21.568 87.3379 21.372 86.7219 21.372ZM97.2761 18.096V27H96.4601V25.752C96.2041 26.176 95.8641 26.5 95.4401 26.724C95.0241 26.948 94.5521 27.06 94.0241 27.06C93.4321 27.06 92.8961 26.924 92.4161 26.652C91.9361 26.38 91.5601 26 91.2881 25.512C91.0161 25.024 90.8801 24.468 90.8801 23.844C90.8801 23.22 91.0161 22.664 91.2881 22.176C91.5601 21.688 91.9361 21.312 92.4161 21.048C92.8961 20.776 93.4321 20.64 94.0241 20.64C94.5361 20.64 94.9961 20.748 95.4041 20.964C95.8201 21.172 96.1601 21.48 96.4241 21.888V18.096H97.2761ZM94.0961 26.304C94.5361 26.304 94.9321 26.204 95.2841 26.004C95.6441 25.796 95.9241 25.504 96.1241 25.128C96.3321 24.752 96.4361 24.324 96.4361 23.844C96.4361 23.364 96.3321 22.936 96.1241 22.56C95.9241 22.184 95.6441 21.896 95.2841 21.696C94.9321 21.488 94.5361 21.384 94.0961 21.384C93.6481 21.384 93.2441 21.488 92.8841 21.696C92.5321 21.896 92.2521 22.184 92.0441 22.56C91.8441 22.936 91.7441 23.364 91.7441 23.844C91.7441 24.324 91.8441 24.752 92.0441 25.128C92.2521 25.504 92.5321 25.796 92.8841 26.004C93.2441 26.204 93.6481 26.304 94.0961 26.304ZM112.054 20.688L109.666 27H108.862L106.87 21.828L104.878 27H104.074L101.698 20.688H102.514L104.494 26.052L106.522 20.688H107.254L109.27 26.052L111.274 20.688H112.054ZM113.336 20.688H114.188V27H113.336V20.688ZM113.768 19.308C113.592 19.308 113.444 19.248 113.324 19.128C113.204 19.008 113.144 18.864 113.144 18.696C113.144 18.536 113.204 18.396 113.324 18.276C113.444 18.156 113.592 18.096 113.768 18.096C113.944 18.096 114.092 18.156 114.212 18.276C114.332 18.388 114.392 18.524 114.392 18.684C114.392 18.86 114.332 19.008 114.212 19.128C114.092 19.248 113.944 19.308 113.768 19.308ZM119.883 26.616C119.723 26.76 119.523 26.872 119.283 26.952C119.051 27.024 118.807 27.06 118.551 27.06C117.959 27.06 117.503 26.9 117.183 26.58C116.863 26.26 116.703 25.808 116.703 25.224V21.408H115.575V20.688H116.703V19.308H117.555V20.688H119.475V21.408H117.555V25.176C117.555 25.552 117.647 25.84 117.831 26.04C118.023 26.232 118.295 26.328 118.647 26.328C118.823 26.328 118.991 26.3 119.151 26.244C119.319 26.188 119.463 26.108 119.583 26.004L119.883 26.616ZM124.65 20.64C125.442 20.64 126.07 20.872 126.534 21.336C127.006 21.792 127.242 22.46 127.242 23.34V27H126.39V23.424C126.39 22.768 126.226 22.268 125.898 21.924C125.57 21.58 125.102 21.408 124.494 21.408C123.814 21.408 123.274 21.612 122.874 22.02C122.482 22.42 122.286 22.976 122.286 23.688V27H121.434V18.096H122.286V21.792C122.518 21.424 122.838 21.14 123.246 20.94C123.654 20.74 124.122 20.64 124.65 20.64ZM139.896 18.6V27H139.02V23.124H133.764V27H132.876V18.6H133.764V22.344H139.02V18.6H139.896ZM147.954 24.108H142.674C142.722 24.764 142.974 25.296 143.43 25.704C143.886 26.104 144.462 26.304 145.158 26.304C145.55 26.304 145.91 26.236 146.238 26.1C146.566 25.956 146.85 25.748 147.09 25.476L147.57 26.028C147.29 26.364 146.938 26.62 146.514 26.796C146.098 26.972 145.638 27.06 145.134 27.06C144.486 27.06 143.91 26.924 143.406 26.652C142.91 26.372 142.522 25.988 142.242 25.5C141.962 25.012 141.822 24.46 141.822 23.844C141.822 23.228 141.954 22.676 142.218 22.188C142.49 21.7 142.858 21.32 143.322 21.048C143.794 20.776 144.322 20.64 144.906 20.64C145.49 20.64 146.014 20.776 146.478 21.048C146.942 21.32 147.306 21.7 147.57 22.188C147.834 22.668 147.966 23.22 147.966 23.844L147.954 24.108ZM144.906 21.372C144.298 21.372 143.786 21.568 143.37 21.96C142.962 22.344 142.73 22.848 142.674 23.472H147.15C147.094 22.848 146.858 22.344 146.442 21.96C146.034 21.568 145.522 21.372 144.906 21.372ZM155.46 18.096V27H154.644V25.752C154.388 26.176 154.048 26.5 153.624 26.724C153.208 26.948 152.736 27.06 152.208 27.06C151.616 27.06 151.08 26.924 150.6 26.652C150.12 26.38 149.744 26 149.472 25.512C149.2 25.024 149.064 24.468 149.064 23.844C149.064 23.22 149.2 22.664 149.472 22.176C149.744 21.688 150.12 21.312 150.6 21.048C151.08 20.776 151.616 20.64 152.208 20.64C152.72 20.64 153.18 20.748 153.588 20.964C154.004 21.172 154.344 21.48 154.608 21.888V18.096H155.46ZM152.28 26.304C152.72 26.304 153.116 26.204 153.468 26.004C153.828 25.796 154.108 25.504 154.308 25.128C154.516 24.752 154.62 24.324 154.62 23.844C154.62 23.364 154.516 22.936 154.308 22.56C154.108 22.184 153.828 21.896 153.468 21.696C153.116 21.488 152.72 21.384 152.28 21.384C151.832 21.384 151.428 21.488 151.068 21.696C150.716 21.896 150.436 22.184 150.228 22.56C150.028 22.936 149.928 23.364 149.928 23.844C149.928 24.324 150.028 24.752 150.228 25.128C150.436 25.504 150.716 25.796 151.068 26.004C151.428 26.204 151.832 26.304 152.28 26.304ZM163.329 24.108H158.049C158.097 24.764 158.349 25.296 158.805 25.704C159.261 26.104 159.837 26.304 160.533 26.304C160.925 26.304 161.285 26.236 161.613 26.1C161.941 25.956 162.225 25.748 162.465 25.476L162.945 26.028C162.665 26.364 162.313 26.62 161.889 26.796C161.473 26.972 161.013 27.06 160.509 27.06C159.861 27.06 159.285 26.924 158.781 26.652C158.285 26.372 157.897 25.988 157.617 25.5C157.337 25.012 157.197 24.46 157.197 23.844C157.197 23.228 157.329 22.676 157.593 22.188C157.865 21.7 158.233 21.32 158.697 21.048C159.169 20.776 159.697 20.64 160.281 20.64C160.865 20.64 161.389 20.776 161.853 21.048C162.317 21.32 162.681 21.7 162.945 22.188C163.209 22.668 163.341 23.22 163.341 23.844L163.329 24.108ZM160.281 21.372C159.673 21.372 159.161 21.568 158.745 21.96C158.337 22.344 158.105 22.848 158.049 23.472H162.525C162.469 22.848 162.233 22.344 161.817 21.96C161.409 21.568 160.897 21.372 160.281 21.372ZM165.891 21.924C166.091 21.5 166.387 21.18 166.779 20.964C167.179 20.748 167.671 20.64 168.255 20.64V21.468L168.051 21.456C167.387 21.456 166.867 21.66 166.491 22.068C166.115 22.476 165.927 23.048 165.927 23.784V27H165.075V20.688H165.891V21.924ZM171.994 20.64C172.818 20.64 173.45 20.848 173.89 21.264C174.33 21.672 174.55 22.28 174.55 23.088V27H173.734V26.016C173.542 26.344 173.258 26.6 172.882 26.784C172.514 26.968 172.074 27.06 171.562 27.06C170.858 27.06 170.298 26.892 169.882 26.556C169.466 26.22 169.258 25.776 169.258 25.224C169.258 24.688 169.45 24.256 169.834 23.928C170.226 23.6 170.846 23.436 171.694 23.436H173.698V23.052C173.698 22.508 173.546 22.096 173.242 21.816C172.938 21.528 172.494 21.384 171.91 21.384C171.51 21.384 171.126 21.452 170.758 21.588C170.39 21.716 170.074 21.896 169.81 22.128L169.426 21.492C169.746 21.22 170.13 21.012 170.578 20.868C171.026 20.716 171.498 20.64 171.994 20.64ZM171.694 26.388C172.174 26.388 172.586 26.28 172.93 26.064C173.274 25.84 173.53 25.52 173.698 25.104V24.072H171.718C170.638 24.072 170.098 24.448 170.098 25.2C170.098 25.568 170.238 25.86 170.518 26.076C170.798 26.284 171.19 26.388 171.694 26.388ZM187.204 18.6V27H186.328V23.124H181.072V27H180.184V18.6H181.072V22.344H186.328V18.6H187.204ZM191.974 20.64C192.798 20.64 193.43 20.848 193.87 21.264C194.31 21.672 194.53 22.28 194.53 23.088V27H193.714V26.016C193.522 26.344 193.238 26.6 192.862 26.784C192.494 26.968 192.054 27.06 191.542 27.06C190.838 27.06 190.278 26.892 189.862 26.556C189.446 26.22 189.238 25.776 189.238 25.224C189.238 24.688 189.43 24.256 189.814 23.928C190.206 23.6 190.826 23.436 191.674 23.436H193.678V23.052C193.678 22.508 193.526 22.096 193.222 21.816C192.918 21.528 192.474 21.384 191.89 21.384C191.49 21.384 191.106 21.452 190.738 21.588C190.37 21.716 190.054 21.896 189.79 22.128L189.406 21.492C189.726 21.22 190.11 21.012 190.558 20.868C191.006 20.716 191.478 20.64 191.974 20.64ZM191.674 26.388C192.154 26.388 192.566 26.28 192.91 26.064C193.254 25.84 193.51 25.52 193.678 25.104V24.072H191.698C190.618 24.072 190.078 24.448 190.078 25.2C190.078 25.568 190.218 25.86 190.498 26.076C190.778 26.284 191.17 26.388 191.674 26.388ZM198.536 27.06C198.024 27.06 197.532 26.988 197.06 26.844C196.596 26.692 196.232 26.504 195.968 26.28L196.352 25.608C196.616 25.816 196.948 25.988 197.348 26.124C197.748 26.252 198.164 26.316 198.596 26.316C199.172 26.316 199.596 26.228 199.868 26.052C200.148 25.868 200.288 25.612 200.288 25.284C200.288 25.052 200.212 24.872 200.06 24.744C199.908 24.608 199.716 24.508 199.484 24.444C199.252 24.372 198.944 24.304 198.56 24.24C198.048 24.144 197.636 24.048 197.324 23.952C197.012 23.848 196.744 23.676 196.52 23.436C196.304 23.196 196.196 22.864 196.196 22.44C196.196 21.912 196.416 21.48 196.856 21.144C197.296 20.808 197.908 20.64 198.692 20.64C199.1 20.64 199.508 20.696 199.916 20.808C200.324 20.912 200.66 21.052 200.924 21.228L200.552 21.912C200.032 21.552 199.412 21.372 198.692 21.372C198.148 21.372 197.736 21.468 197.456 21.66C197.184 21.852 197.048 22.104 197.048 22.416C197.048 22.656 197.124 22.848 197.276 22.992C197.436 23.136 197.632 23.244 197.864 23.316C198.096 23.38 198.416 23.448 198.824 23.52C199.328 23.616 199.732 23.712 200.036 23.808C200.34 23.904 200.6 24.068 200.816 24.3C201.032 24.532 201.14 24.852 201.14 25.26C201.14 25.812 200.908 26.252 200.444 26.58C199.988 26.9 199.352 27.06 198.536 27.06ZM205.931 20.64C206.723 20.64 207.351 20.872 207.815 21.336C208.287 21.792 208.523 22.46 208.523 23.34V27H207.671V23.424C207.671 22.768 207.507 22.268 207.179 21.924C206.851 21.58 206.383 21.408 205.775 21.408C205.095 21.408 204.555 21.612 204.155 22.02C203.763 22.42 203.567 22.976 203.567 23.688V27H202.715V18.096H203.567V21.792C203.799 21.424 204.119 21.14 204.527 20.94C204.935 20.74 205.403 20.64 205.931 20.64ZM216.704 20.688V26.232C216.704 27.304 216.44 28.096 215.912 28.608C215.392 29.128 214.604 29.388 213.548 29.388C212.964 29.388 212.408 29.3 211.88 29.124C211.36 28.956 210.936 28.72 210.608 28.416L211.04 27.768C211.344 28.04 211.712 28.252 212.144 28.404C212.584 28.556 213.044 28.632 213.524 28.632C214.324 28.632 214.912 28.444 215.288 28.068C215.664 27.7 215.852 27.124 215.852 26.34V25.536C215.588 25.936 215.24 26.24 214.808 26.448C214.384 26.656 213.912 26.76 213.392 26.76C212.8 26.76 212.26 26.632 211.772 26.376C211.292 26.112 210.912 25.748 210.632 25.284C210.36 24.812 210.224 24.28 210.224 23.688C210.224 23.096 210.36 22.568 210.632 22.104C210.912 21.64 211.292 21.28 211.772 21.024C212.252 20.768 212.792 20.64 213.392 20.64C213.928 20.64 214.412 20.748 214.844 20.964C215.276 21.18 215.624 21.492 215.888 21.9V20.688H216.704ZM213.476 26.004C213.932 26.004 214.344 25.908 214.712 25.716C215.08 25.516 215.364 25.24 215.564 24.888C215.772 24.536 215.876 24.136 215.876 23.688C215.876 23.24 215.772 22.844 215.564 22.5C215.364 22.148 215.08 21.876 214.712 21.684C214.352 21.484 213.94 21.384 213.476 21.384C213.02 21.384 212.608 21.48 212.24 21.672C211.88 21.864 211.596 22.136 211.388 22.488C211.188 22.84 211.088 23.24 211.088 23.688C211.088 24.136 211.188 24.536 211.388 24.888C211.596 25.24 211.88 25.516 212.24 25.716C212.608 25.908 213.02 26.004 213.476 26.004ZM219.902 21.924C220.102 21.5 220.398 21.18 220.79 20.964C221.19 20.748 221.682 20.64 222.266 20.64V21.468L222.062 21.456C221.398 21.456 220.878 21.66 220.502 22.068C220.126 22.476 219.938 23.048 219.938 23.784V27H219.086V20.688H219.902V21.924ZM226.005 20.64C226.829 20.64 227.461 20.848 227.901 21.264C228.341 21.672 228.561 22.28 228.561 23.088V27H227.745V26.016C227.553 26.344 227.269 26.6 226.893 26.784C226.525 26.968 226.085 27.06 225.573 27.06C224.869 27.06 224.309 26.892 223.893 26.556C223.477 26.22 223.269 25.776 223.269 25.224C223.269 24.688 223.461 24.256 223.845 23.928C224.237 23.6 224.857 23.436 225.705 23.436H227.709V23.052C227.709 22.508 227.557 22.096 227.253 21.816C226.949 21.528 226.505 21.384 225.921 21.384C225.521 21.384 225.137 21.452 224.769 21.588C224.401 21.716 224.085 21.896 223.821 22.128L223.437 21.492C223.757 21.22 224.141 21.012 224.589 20.868C225.037 20.716 225.509 20.64 226.005 20.64ZM225.705 26.388C226.185 26.388 226.597 26.28 226.941 26.064C227.285 25.84 227.541 25.52 227.709 25.104V24.072H225.729C224.649 24.072 224.109 24.448 224.109 25.2C224.109 25.568 224.249 25.86 224.529 26.076C224.809 26.284 225.201 26.388 225.705 26.388ZM234.128 20.64C234.72 20.64 235.256 20.776 235.736 21.048C236.216 21.312 236.592 21.688 236.864 22.176C237.136 22.664 237.272 23.22 237.272 23.844C237.272 24.476 237.136 25.036 236.864 25.524C236.592 26.012 236.216 26.392 235.736 26.664C235.264 26.928 234.728 27.06 234.128 27.06C233.616 27.06 233.152 26.956 232.736 26.748C232.328 26.532 231.992 26.22 231.728 25.812V29.328H230.876V20.688H231.692V21.936C231.948 21.52 232.284 21.2 232.7 20.976C233.124 20.752 233.6 20.64 234.128 20.64ZM234.068 26.304C234.508 26.304 234.908 26.204 235.268 26.004C235.628 25.796 235.908 25.504 236.108 25.128C236.316 24.752 236.42 24.324 236.42 23.844C236.42 23.364 236.316 22.94 236.108 22.572C235.908 22.196 235.628 21.904 235.268 21.696C234.908 21.488 234.508 21.384 234.068 21.384C233.62 21.384 233.216 21.488 232.855 21.696C232.504 21.904 232.224 22.196 232.016 22.572C231.816 22.94 231.716 23.364 231.716 23.844C231.716 24.324 231.816 24.752 232.016 25.128C232.224 25.504 232.504 25.796 232.855 26.004C233.216 26.204 233.62 26.304 234.068 26.304ZM242.224 20.64C243.016 20.64 243.644 20.872 244.108 21.336C244.58 21.792 244.816 22.46 244.816 23.34V27H243.964V23.424C243.964 22.768 243.8 22.268 243.472 21.924C243.144 21.58 242.676 21.408 242.068 21.408C241.388 21.408 240.848 21.612 240.448 22.02C240.056 22.42 239.86 22.976 239.86 23.688V27H239.008V18.096H239.86V21.792C240.092 21.424 240.412 21.14 240.82 20.94C241.228 20.74 241.696 20.64 242.224 20.64Z" fill="#07203F"/>
</g>
<g id="Group 1">
<line id="Line 1" x1="149" y1="271.5" x2="259.787" y2="271.5" stroke="#D9AA90" stroke-width="3"/>
<g id="search-svgrepo-com 1" clip-path="url(#clip0_1_2)">
<g id="Group_3">
<g id="Group_4">
<path id="Vector_6" d="M271.125 276.421L260.919 266.085C262.931 263.643 264.141 260.522 264.141 257.114C264.141 249.338 257.835 243.015 250.078 243.015C242.321 243.015 236 249.345 236 257.121C236 264.897 242.306 271.22 250.063 271.22C253.359 271.22 256.391 270.077 258.797 268.166L269.04 278.532C269.638 279.136 270.528 279.136 271.125 278.532C271.723 277.927 271.723 277.026 271.125 276.421ZM238.989 257.121C238.989 251.012 243.961 246.047 250.063 246.047C256.165 246.047 261.137 251.012 261.137 257.121C261.137 263.23 256.165 268.195 250.063 268.195C243.961 268.195 238.989 263.223 238.989 257.121Z" fill="#A65E46"/>
</g>
</g>
</g>
<path id="DISCOVER" d="M150.88 250H157C158.493 250 159.82 250.293 160.98 250.88C162.14 251.453 163.04 252.273 163.68 253.34C164.32 254.393 164.64 255.613 164.64 257C164.64 258.387 164.32 259.613 163.68 260.68C163.04 261.733 162.14 262.553 160.98 263.14C159.82 263.713 158.493 264 157 264H150.88V250ZM156.88 261.8C157.907 261.8 158.807 261.607 159.58 261.22C160.367 260.82 160.967 260.26 161.38 259.54C161.807 258.807 162.02 257.96 162.02 257C162.02 256.04 161.807 255.2 161.38 254.48C160.967 253.747 160.367 253.187 159.58 252.8C158.807 252.4 157.907 252.2 156.88 252.2H153.48V261.8H156.88ZM167.403 250H170.003V264H167.403V250ZM178.13 264.2C177.05 264.2 176.003 264.047 174.99 263.74C173.99 263.433 173.197 263.027 172.61 262.52L173.51 260.5C174.083 260.953 174.783 261.327 175.61 261.62C176.45 261.9 177.29 262.04 178.13 262.04C179.17 262.04 179.943 261.873 180.45 261.54C180.97 261.207 181.23 260.767 181.23 260.22C181.23 259.82 181.083 259.493 180.79 259.24C180.51 258.973 180.15 258.767 179.71 258.62C179.27 258.473 178.67 258.307 177.91 258.12C176.843 257.867 175.977 257.613 175.31 257.36C174.657 257.107 174.09 256.713 173.61 256.18C173.143 255.633 172.91 254.9 172.91 253.98C172.91 253.207 173.117 252.507 173.53 251.88C173.957 251.24 174.59 250.733 175.43 250.36C176.283 249.987 177.323 249.8 178.55 249.8C179.403 249.8 180.243 249.907 181.07 250.12C181.897 250.333 182.61 250.64 183.21 251.04L182.39 253.06C181.777 252.7 181.137 252.427 180.47 252.24C179.803 252.053 179.157 251.96 178.53 251.96C177.503 251.96 176.737 252.133 176.23 252.48C175.737 252.827 175.49 253.287 175.49 253.86C175.49 254.26 175.63 254.587 175.91 254.84C176.203 255.093 176.57 255.293 177.01 255.44C177.45 255.587 178.05 255.753 178.81 255.94C179.85 256.18 180.703 256.433 181.37 256.7C182.037 256.953 182.603 257.347 183.07 257.88C183.55 258.413 183.79 259.133 183.79 260.04C183.79 260.813 183.577 261.513 183.15 262.14C182.737 262.767 182.103 263.267 181.25 263.64C180.397 264.013 179.357 264.2 178.13 264.2ZM192.848 264.2C191.435 264.2 190.155 263.893 189.008 263.28C187.875 262.653 186.982 261.793 186.328 260.7C185.688 259.607 185.368 258.373 185.368 257C185.368 255.627 185.695 254.393 186.348 253.3C187.002 252.207 187.895 251.353 189.028 250.74C190.175 250.113 191.455 249.8 192.868 249.8C194.015 249.8 195.062 250 196.008 250.4C196.955 250.8 197.755 251.38 198.408 252.14L196.728 253.72C195.715 252.627 194.468 252.08 192.988 252.08C192.028 252.08 191.168 252.293 190.408 252.72C189.648 253.133 189.055 253.713 188.628 254.46C188.202 255.207 187.988 256.053 187.988 257C187.988 257.947 188.202 258.793 188.628 259.54C189.055 260.287 189.648 260.873 190.408 261.3C191.168 261.713 192.028 261.92 192.988 261.92C194.468 261.92 195.715 261.367 196.728 260.26L198.408 261.86C197.755 262.62 196.948 263.2 195.988 263.6C195.042 264 193.995 264.2 192.848 264.2ZM207.147 264.2C205.72 264.2 204.433 263.893 203.287 263.28C202.14 262.653 201.24 261.793 200.587 260.7C199.933 259.593 199.607 258.36 199.607 257C199.607 255.64 199.933 254.413 200.587 253.32C201.24 252.213 202.14 251.353 203.287 250.74C204.433 250.113 205.72 249.8 207.147 249.8C208.573 249.8 209.86 250.113 211.007 250.74C212.153 251.353 213.053 252.207 213.707 253.3C214.36 254.393 214.687 255.627 214.687 257C214.687 258.373 214.36 259.607 213.707 260.7C213.053 261.793 212.153 262.653 211.007 263.28C209.86 263.893 208.573 264.2 207.147 264.2ZM207.147 261.92C208.08 261.92 208.92 261.713 209.667 261.3C210.413 260.873 211 260.287 211.427 259.54C211.853 258.78 212.067 257.933 212.067 257C212.067 256.067 211.853 255.227 211.427 254.48C211 253.72 210.413 253.133 209.667 252.72C208.92 252.293 208.08 252.08 207.147 252.08C206.213 252.08 205.373 252.293 204.627 252.72C203.88 253.133 203.293 253.72 202.867 254.48C202.44 255.227 202.227 256.067 202.227 257C202.227 257.933 202.44 258.78 202.867 259.54C203.293 260.287 203.88 260.873 204.627 261.3C205.373 261.713 206.213 261.92 207.147 261.92ZM229.793 250L223.693 264H221.133L215.013 250H217.833L222.493 260.8L227.193 250H229.793ZM241.771 261.82V264H231.271V250H241.491V252.18H233.871V255.82H240.631V257.96H233.871V261.82H241.771ZM253.829 264L250.969 259.9C250.849 259.913 250.669 259.92 250.429 259.92H247.269V264H244.669V250H250.429C251.642 250 252.696 250.2 253.589 250.6C254.496 251 255.189 251.573 255.669 252.32C256.149 253.067 256.389 253.953 256.389 254.98C256.389 256.033 256.129 256.94 255.609 257.7C255.102 258.46 254.369 259.027 253.409 259.4L256.629 264H253.829ZM253.769 254.98C253.769 254.087 253.476 253.4 252.889 252.92C252.302 252.44 251.442 252.2 250.309 252.2H247.269V257.78H250.309C251.442 257.78 252.302 257.54 252.889 257.06C253.476 256.567 253.769 255.873 253.769 254.98Z" fill="#F1D2B6"/>
</g>
</g>
<defs>
<filter id="filter0_d_1_2" x="13" y="241" width="130" height="44" filterUnits="userSpaceOnUse" color-interpolation-filters="sRGB">
<feFlood flood-opacity="0" result="BackgroundImageFix"/>
<feColorMatrix in="SourceAlpha" type="matrix" values="0 0 0 0 0 0 0 0 0 0 0 0 0 0 0 0 0 0 127 0" result="hardAlpha"/>
<feOffset dy="4"/>
<feGaussianBlur stdDeviation="2"/>
<feComposite in2="hardAlpha" operator="out"/>
<feColorMatrix type="matrix" values="0 0 0 0 0 0 0 0 0 0 0 0 0 0 0 0 0 0 0.25 0"/>
<feBlend mode="normal" in2="BackgroundImageFix" result="effect1_dropShadow_1_2"/>
<feBlend mode="normal" in="SourceGraphic" in2="effect1_dropShadow_1_2" result="shape"/>
</filter>
<filter id="filter1_d_1_2" x="12" y="9" width="247" height="38" filterUnits="userSpaceOnUse" color-interpolation-filters="sRGB">
<feFlood flood-opacity="0" result="BackgroundImageFix"/>
<feColorMatrix in="SourceAlpha" type="matrix" values="0 0 0 0 0 0 0 0 0 0 0 0 0 0 0 0 0 0 127 0" result="hardAlpha"/>
<feOffset dy="4"/>
<feGaussianBlur stdDeviation="2"/>
<feComposite in2="hardAlpha" operator="out"/>
<feColorMatrix type="matrix" values="0 0 0 0 0 0 0 0 0 0 0 0 0 0 0 0 0 0 0.25 0"/>
<feBlend mode="normal" in2="BackgroundImageFix" result="effect1_dropShadow_1_2"/>
<feBlend mode="normal" in="SourceGraphic" in2="effect1_dropShadow_1_2" result="shape"/>
</filter>
<clipPath id="clip0_1_2">
<rect width="35.5738" height="36" fill="white" transform="translate(236 243)"/>
</clipPath>
</defs>
</svg>
