<svg xmlns="http://www.w3.org/2000/svg" xmlns:xlink="http://www.w3.org/1999/xlink" width="1080" zoomAndPan="magnify" viewBox="0 0 810 809.999993" height="1080" preserveAspectRatio="xMidYMid meet" version="1.0"><defs><clipPath id="id1"><path d="M 0 115.929688 L 810 115.929688 L 810 694.179688 L 0 694.179688 Z M 0 115.929688 " clip-rule="nonzero"/></clipPath></defs><g clip-path="url(#id1)"><path fill="rgb(100%, 76.858521%, 0%)" d="M 809.691406 202.667969 C 809.691406 179.65625 800.558594 157.59375 784.285156 141.34375 C 768.039062 125.066406 745.984375 115.929688 722.972656 115.929688 C 582.976562 115.929688 227.023438 115.929688 87.027344 115.929688 C 64.015625 115.929688 41.960938 125.066406 25.714844 141.34375 C 9.441406 157.59375 0.308594 179.65625 0.308594 202.667969 C 0.308594 302.792969 0.308594 507.320312 0.308594 607.445312 C 0.308594 630.457031 9.441406 652.519531 25.714844 668.765625 C 41.960938 685.046875 64.015625 694.179688 87.027344 694.179688 C 227.023438 694.179688 582.976562 694.179688 722.972656 694.179688 C 745.984375 694.179688 768.039062 685.046875 784.285156 668.765625 C 800.558594 652.519531 809.691406 630.457031 809.691406 607.445312 Z M 809.691406 202.667969 " fill-opacity="1" fill-rule="evenodd"/><path fill="rgb(90.589905%, 69.40918%, 0%)" d="M 665.160156 115.929688 L 722.972656 115.929688 C 745.984375 115.929688 768.039062 125.066406 784.285156 141.34375 C 800.558594 157.59375 809.691406 179.65625 809.691406 202.667969 L 809.691406 607.445312 C 809.691406 630.457031 800.558594 652.519531 784.285156 668.765625 C 768.039062 685.046875 745.984375 694.179688 722.972656 694.179688 C 582.976562 694.179688 227.023438 694.179688 87.027344 694.179688 C 64.015625 694.179688 41.960938 685.046875 25.714844 668.765625 C 9.441406 652.519531 0.308594 630.457031 0.308594 607.445312 L 0.308594 549.617188 L 578.441406 549.617188 C 601.449219 549.617188 623.503906 540.484375 639.75 524.203125 C 656.023438 507.957031 665.160156 485.894531 665.160156 462.882812 Z M 665.160156 115.929688 " fill-opacity="1" fill-rule="evenodd"/></g><path fill="rgb(93.328857%, 93.328857%, 93.328857%)" d="M 311.921875 289.40625 C 311.921875 290.824219 311.886719 292.246094 311.816406 293.664062 C 311.746094 295.078125 311.640625 296.496094 311.503906 297.90625 C 311.363281 299.320312 311.191406 300.730469 310.980469 302.132812 C 310.773438 303.535156 310.53125 304.933594 310.253906 306.328125 C 309.976562 307.71875 309.667969 309.105469 309.320312 310.480469 C 308.976562 311.859375 308.597656 313.226562 308.1875 314.585938 C 307.773438 315.941406 307.328125 317.289062 306.851562 318.625 C 306.375 319.964844 305.863281 321.289062 305.320312 322.597656 C 304.777344 323.910156 304.203125 325.207031 303.59375 326.492188 C 302.988281 327.773438 302.351562 329.042969 301.679688 330.292969 C 301.011719 331.546875 300.3125 332.78125 299.582031 333.996094 C 298.851562 335.214844 298.09375 336.414062 297.304688 337.59375 C 296.515625 338.773438 295.699219 339.933594 294.855469 341.074219 C 294.007812 342.214844 293.136719 343.335938 292.234375 344.433594 C 291.335938 345.527344 290.410156 346.601562 289.457031 347.65625 C 288.503906 348.707031 287.523438 349.734375 286.519531 350.738281 C 285.515625 351.742188 284.488281 352.722656 283.4375 353.675781 C 282.386719 354.628906 281.3125 355.554688 280.214844 356.457031 C 279.117188 357.355469 278 358.230469 276.859375 359.074219 C 275.71875 359.917969 274.558594 360.738281 273.378906 361.527344 C 272.199219 362.3125 271 363.074219 269.785156 363.804688 C 268.566406 364.53125 267.332031 365.234375 266.082031 365.902344 C 264.828125 366.570312 263.5625 367.207031 262.277344 367.816406 C 260.996094 368.421875 259.699219 368.996094 258.386719 369.542969 C 257.074219 370.085938 255.753906 370.59375 254.414062 371.074219 C 253.078125 371.550781 251.730469 371.996094 250.375 372.410156 C 249.015625 372.820312 247.648438 373.199219 246.273438 373.542969 C 244.894531 373.890625 243.511719 374.199219 242.117188 374.476562 C 240.726562 374.753906 239.328125 374.996094 237.925781 375.203125 C 236.519531 375.414062 235.113281 375.585938 233.699219 375.726562 C 232.289062 375.863281 230.875 375.96875 229.457031 376.039062 C 228.039062 376.109375 226.621094 376.144531 225.199219 376.144531 C 223.78125 376.144531 222.363281 376.109375 220.945312 376.039062 C 219.527344 375.96875 218.113281 375.863281 216.699219 375.726562 C 215.289062 375.585938 213.878906 375.414062 212.476562 375.203125 C 211.074219 374.996094 209.675781 374.753906 208.28125 374.476562 C 206.890625 374.199219 205.507812 373.890625 204.128906 373.542969 C 202.753906 373.199219 201.386719 372.820312 200.027344 372.410156 C 198.667969 371.996094 197.320312 371.550781 195.984375 371.074219 C 194.648438 370.59375 193.324219 370.085938 192.015625 369.542969 C 190.703125 368.996094 189.40625 368.421875 188.125 367.816406 C 186.839844 367.207031 185.574219 366.570312 184.320312 365.902344 C 183.070312 365.230469 181.835938 364.53125 180.617188 363.804688 C 179.398438 363.074219 178.203125 362.3125 177.023438 361.527344 C 175.839844 360.738281 174.679688 359.917969 173.542969 359.074219 C 172.402344 358.230469 171.285156 357.355469 170.1875 356.457031 C 169.089844 355.554688 168.015625 354.628906 166.964844 353.675781 C 165.910156 352.722656 164.882812 351.742188 163.878906 350.738281 C 162.875 349.734375 161.898438 348.707031 160.945312 347.65625 C 159.992188 346.601562 159.066406 345.527344 158.164062 344.429688 C 157.265625 343.335938 156.390625 342.214844 155.546875 341.074219 C 154.699219 339.933594 153.882812 338.773438 153.09375 337.59375 C 152.308594 336.414062 151.546875 335.214844 150.820312 333.996094 C 150.089844 332.78125 149.390625 331.546875 148.71875 330.292969 C 148.050781 329.042969 147.414062 327.773438 146.808594 326.492188 C 146.199219 325.207031 145.625 323.910156 145.082031 322.597656 C 144.539062 321.289062 144.027344 319.964844 143.550781 318.625 C 143.070312 317.289062 142.625 315.941406 142.214844 314.585938 C 141.804688 313.226562 141.425781 311.859375 141.078125 310.480469 C 140.734375 309.105469 140.425781 307.71875 140.148438 306.328125 C 139.871094 304.933594 139.628906 303.535156 139.417969 302.132812 C 139.210938 300.730469 139.039062 299.320312 138.898438 297.90625 C 138.757812 296.496094 138.65625 295.078125 138.585938 293.664062 C 138.515625 292.246094 138.480469 290.824219 138.480469 289.40625 C 138.480469 287.988281 138.515625 286.566406 138.585938 285.148438 C 138.65625 283.730469 138.757812 282.316406 138.898438 280.90625 C 139.039062 279.492188 139.210938 278.082031 139.417969 276.679688 C 139.628906 275.273438 139.871094 273.875 140.148438 272.484375 C 140.425781 271.09375 140.734375 269.707031 141.078125 268.332031 C 141.425781 266.953125 141.804688 265.585938 142.214844 264.226562 C 142.625 262.867188 143.070312 261.523438 143.550781 260.183594 C 144.027344 258.847656 144.539062 257.523438 145.082031 256.214844 C 145.625 254.902344 146.199219 253.605469 146.808594 252.320312 C 147.414062 251.039062 148.050781 249.769531 148.71875 248.519531 C 149.390625 247.265625 150.089844 246.03125 150.820312 244.8125 C 151.546875 243.597656 152.308594 242.398438 153.09375 241.21875 C 153.882812 240.035156 154.699219 238.878906 155.546875 237.738281 C 156.390625 236.597656 157.265625 235.476562 158.164062 234.378906 C 159.066406 233.28125 159.992188 232.207031 160.945312 231.15625 C 161.898438 230.105469 162.875 229.078125 163.878906 228.074219 C 164.882812 227.070312 165.910156 226.089844 166.964844 225.136719 C 168.015625 224.183594 169.089844 223.257812 170.1875 222.355469 C 171.285156 221.457031 172.402344 220.582031 173.542969 219.738281 C 174.679688 218.890625 175.839844 218.074219 177.023438 217.285156 C 178.203125 216.496094 179.398438 215.738281 180.617188 215.007812 C 181.835938 214.28125 183.070312 213.578125 184.320312 212.910156 C 185.574219 212.242188 186.839844 211.601562 188.125 210.996094 C 189.40625 210.390625 190.703125 209.816406 192.015625 209.269531 C 193.324219 208.726562 194.648438 208.21875 195.984375 207.738281 C 197.320312 207.261719 198.667969 206.816406 200.027344 206.402344 C 201.386719 205.992188 202.753906 205.613281 204.128906 205.269531 C 205.507812 204.921875 206.890625 204.613281 208.28125 204.335938 C 209.675781 204.058594 211.074219 203.816406 212.476562 203.609375 C 213.878906 203.398438 215.289062 203.226562 216.699219 203.085938 C 218.113281 202.945312 219.527344 202.84375 220.945312 202.773438 C 222.363281 202.703125 223.78125 202.667969 225.199219 202.667969 C 226.621094 202.667969 228.039062 202.703125 229.457031 202.773438 C 230.875 202.84375 232.289062 202.945312 233.699219 203.085938 C 235.113281 203.226562 236.519531 203.398438 237.925781 203.605469 C 239.328125 203.816406 240.726562 204.058594 242.117188 204.335938 C 243.511719 204.613281 244.894531 204.921875 246.273438 205.269531 C 247.648438 205.613281 249.015625 205.992188 250.375 206.402344 C 251.730469 206.816406 253.078125 207.261719 254.414062 207.738281 C 255.753906 208.21875 257.074219 208.726562 258.386719 209.269531 C 259.699219 209.816406 260.996094 210.390625 262.277344 210.996094 C 263.5625 211.601562 264.828125 212.242188 266.082031 212.910156 C 267.332031 213.578125 268.566406 214.28125 269.785156 215.007812 C 271 215.738281 272.199219 216.496094 273.378906 217.285156 C 274.558594 218.074219 275.71875 218.890625 276.859375 219.738281 C 278 220.582031 279.117188 221.457031 280.214844 222.355469 C 281.3125 223.257812 282.386719 224.183594 283.4375 225.136719 C 284.488281 226.089844 285.515625 227.070312 286.519531 228.074219 C 287.523438 229.078125 288.503906 230.105469 289.457031 231.15625 C 290.410156 232.207031 291.335938 233.28125 292.234375 234.378906 C 293.136719 235.476562 294.007812 236.597656 294.855469 237.738281 C 295.699219 238.878906 296.515625 240.035156 297.304688 241.21875 C 298.09375 242.398438 298.851562 243.597656 299.582031 244.8125 C 300.3125 246.03125 301.011719 247.265625 301.679688 248.519531 C 302.351562 249.769531 302.988281 251.039062 303.59375 252.320312 C 304.203125 253.605469 304.777344 254.902344 305.320312 256.214844 C 305.863281 257.523438 306.375 258.847656 306.851562 260.183594 C 307.328125 261.523438 307.773438 262.867188 308.1875 264.226562 C 308.597656 265.585938 308.976562 266.953125 309.320312 268.332031 C 309.667969 269.707031 309.976562 271.09375 310.253906 272.484375 C 310.53125 273.875 310.773438 275.273438 310.980469 276.679688 C 311.191406 278.082031 311.363281 279.492188 311.503906 280.90625 C 311.640625 282.316406 311.746094 283.730469 311.816406 285.148438 C 311.886719 286.566406 311.921875 287.988281 311.921875 289.40625 Z M 311.921875 289.40625 " fill-opacity="1" fill-rule="nonzero"/><path fill="rgb(93.328857%, 93.328857%, 93.328857%)" d="M 344.933594 451.546875 C 339.527344 424.515625 315.792969 405.054688 288.21875 405.054688 C 255.089844 405.054688 195.3125 405.054688 162.183594 405.054688 C 134.636719 405.054688 110.902344 424.515625 105.5 451.546875 C 100.816406 474.996094 93.503906 511.453125 88.15625 538.285156 C 84.742188 555.257812 89.136719 572.894531 100.121094 586.28125 C 111.105469 599.667969 127.523438 607.445312 144.839844 607.445312 C 188.375 607.445312 262.027344 607.445312 305.5625 607.445312 C 322.90625 607.445312 339.296875 599.667969 350.28125 586.28125 C 361.265625 572.894531 365.65625 555.257812 362.277344 538.285156 Z M 344.933594 451.546875 " fill-opacity="1" fill-rule="evenodd"/><path fill="rgb(93.328857%, 93.328857%, 93.328857%)" d="M 433.90625 462.882812 L 636.253906 462.882812 C 652.210938 462.882812 665.160156 449.929688 665.160156 433.96875 C 665.160156 418.007812 652.210938 405.054688 636.253906 405.054688 L 433.90625 405.054688 C 417.949219 405.054688 405 418.007812 405 433.96875 C 405 449.929688 417.949219 462.882812 433.90625 462.882812 Z M 433.90625 376.144531 L 694.066406 376.144531 C 710.023438 376.144531 722.972656 363.191406 722.972656 347.230469 C 722.972656 331.273438 710.023438 318.320312 694.066406 318.320312 L 433.90625 318.320312 C 417.949219 318.320312 405 331.273438 405 347.230469 C 405 363.191406 417.949219 376.144531 433.90625 376.144531 Z M 433.90625 376.144531 " fill-opacity="1" fill-rule="evenodd"/><path fill="rgb(89.7995%, 89.7995%, 89.7995%)" d="M 665.160156 433.96875 Z M 665.160156 318.320312 L 694.066406 318.320312 C 710.023438 318.320312 722.972656 331.273438 722.972656 347.230469 C 722.972656 363.191406 710.023438 376.144531 694.066406 376.144531 L 665.160156 376.144531 Z M 665.160156 318.320312 " fill-opacity="1" fill-rule="evenodd"/><path fill="rgb(89.7995%, 89.7995%, 89.7995%)" d="M 87.027344 549.617188 L 363.375 549.617188 C 363.375 562.859375 358.835938 575.84375 350.28125 586.28125 C 339.296875 599.667969 322.90625 607.445312 305.5625 607.445312 C 262.027344 607.445312 188.375 607.445312 144.839844 607.445312 C 127.523438 607.445312 111.105469 599.667969 100.121094 586.28125 C 91.59375 575.84375 87.027344 562.859375 87.027344 549.617188 Z M 87.027344 549.617188 " fill-opacity="1" fill-rule="evenodd"/></svg>